/* XPM */
static char *_aa6464a29344b3e999f1c30ba0b1d7ehBANoM6G7Szeoj6e[] = {
/* columns rows colors chars-per-pixel */
"64 64 3 1 ",
"  c #15395B",
". c #60B6C5",
"X c white",
/* pixels */
"................................................................",
"................................................................",
"................................................................",
"................................................................",
"................................................................",
"................................................................",
"................................................................",
"................................................................",
"................................................................",
"................................................................",
"................................................................",
"................................................................",
"................................................................",
"................................................................",
"................................................................",
".....................XXXXXXXXXXXXXXXXXXXXXX.....................",
"....................XXXXXXXXXXXXXXXXXXXXXXXX....................",
"...................XXX                    XXX...................",
"...................XX                      XX...................",
"...................XX                      XX...................",
"...................XX                      XX...................",
"...................XX                      XX...................",
"...................XX                     XXX...................",
"...................XX       XXXXXXXXXXXXXXXX....................",
"...................XX      XXXXXXXXXXXXXXXX.....................",
"...................XX      XXX..................................",
"...................XX      XXX..................................",
"...................XX      XXXXXXXXXXXXXXX......................",
"...................XX       XXXXXXXXXXXXXXX.....................",
"...................XX                    XXX....................",
"...................XX                     XX....................",
"...................XX                     XX....................",
"...................XX                     XX....................",
"...................XX                     XX....................",
"...................XX                    XXX....................",
"...................XX       XXXXXXXXXXXXXXX.....................",
"...................XX      XXXXXXXXXXXXXXX......................",
"...................XX      XXX..................................",
"...................XX      XXX..................................",
"...................XX      XXXXXXXXXXXXXXXX.....................",
"...................XX       XXXXXXXXXXXXXXXX....................",
"...................XX                     XXX...................",
"...................XX                      XX...................",
"...................XX                      XX...................",
"...................XX                      XX...................",
"...................XX                      XX...................",
"...................XXX                    XXX...................",
"....................XXXXXXXXXXXXXXXXXXXXXXXX....................",
".....................XXXXXXXXXXXXXXXXXXXXXX.....................",
"................................................................",
"................................................................",
"................................................................",
"................................................................",
"................................................................",
"................................................................",
"................................................................",
"................................................................",
"................................................................",
"................................................................",
"................................................................",
"................................................................",
"................................................................",
"................................................................",
"................................................................"
};
