/* XPM */
static char *_6970c31b560483ac71796836e6ba8eatFy2rFFBkeCUefgi[] = {
/* columns rows colors chars-per-pixel */
"64 64 3 1 ",
"  c #BA5A4A",
". c #E8A792",
"o c white",
/* pixels */
"................................................................",
"................................................................",
"................................................................",
"................................................................",
"................................................................",
"................................................................",
"................................................................",
"................................................................",
"................................................................",
"................................................................",
"................................................................",
"................................................................",
"................................................................",
"................................................................",
"................................................................",
"....................ooooooo............oooooo...................",
"...................ooooooooo..........oooooooo..................",
"..................ooo     ooo........ooo    ooo.................",
"..................oo       ooo.......oo      oo.................",
"..................oo        oo.......oo      oo.................",
"..................oo        ooo......oo      oo.................",
"..................oo         ooo.....oo      oo.................",
"..................oo          oo.....oo      oo.................",
"..................oo          ooo....oo      oo.................",
"..................oo           ooo...oo      oo.................",
"..................oo            oo...oo      oo.................",
"..................oo            ooo..oo      oo.................",
"..................oo             ooo.oo      oo.................",
"..................oo              oo.oo      oo.................",
"..................oo              ooooo      oo.................",
"..................oo       o       oooo      oo.................",
"..................oo      ooo       ooo      oo.................",
"..................oo      ooo       ooo      oo.................",
"..................oo      oooo       o       oo.................",
"..................oo      ooooo              oo.................",
"..................oo      oo.oo              oo.................",
"..................oo      oo.ooo             oo.................",
"..................oo      oo..ooo            oo.................",
"..................oo      oo...oo            oo.................",
"..................oo      oo...ooo           oo.................",
"..................oo      oo....ooo          oo.................",
"..................oo      oo.....oo          oo.................",
"..................oo      oo.....ooo         oo.................",
"..................oo      oo......ooo        oo.................",
"..................oo      oo.......oo        oo.................",
"..................oo      oo.......ooo       oo.................",
"..................ooo    ooo........ooo     ooo.................",
"...................oooooooo..........ooooooooo..................",
"....................oooooo............ooooooo...................",
"................................................................",
"................................................................",
"................................................................",
"................................................................",
"................................................................",
"................................................................",
"................................................................",
"................................................................",
"................................................................",
"................................................................",
"................................................................",
"................................................................",
"................................................................",
"................................................................",
"................................................................"
};
