/* XPM */
static char *_ea1324c157c4790e83945eee6d7a0cbfwxpe4GjbfCSIEpd[] = {
/* columns rows colors chars-per-pixel */
"64 64 3 1 ",
"  c #1B3F21",
"o c #7BB892",
"@ c white",
/* pixels */
"oooooooooooooooooooooooooooooooooooooooooooooooooooooooooooooooo",
"oooooooooooooooooooooooooooooooooooooooooooooooooooooooooooooooo",
"oooooooooooooooooooooooooooooooooooooooooooooooooooooooooooooooo",
"oooooooooooooooooooooooooooooooooooooooooooooooooooooooooooooooo",
"oooooooooooooooooooooooooooooooooooooooooooooooooooooooooooooooo",
"oooooooooooooooooooooooooooooooooooooooooooooooooooooooooooooooo",
"oooooooooooooooooooooooooooooooooooooooooooooooooooooooooooooooo",
"oooooooooooooooooooooooooooooooooooooooooooooooooooooooooooooooo",
"oooooooooooooooooooooooooooooooooooooooooooooooooooooooooooooooo",
"oooooooooooooooooooooooooooooooooooooooooooooooooooooooooooooooo",
"oooooooooooooooooooooooooooooooooooooooooooooooooooooooooooooooo",
"oooooooooooooooooooooooooooooooooooooooooooooooooooooooooooooooo",
"oooooooooooooooooooooooooooooooooooooooooooooooooooooooooooooooo",
"oooooooooooooooooooooooooooooooooooooooooooooooooooooooooooooooo",
"ooooooooooooooooooooooooooo@@@@@@@@@@ooooooooooooooooooooooooooo",
"ooooooooooooooooooooooooo@@@@@@@@@@@@@@ooooooooooooooooooooooooo",
"ooooooooooooooooooooooo@@@@@        @@@@@ooooooooooooooooooooooo",
"oooooooooooooooooooooo@@@@            @@@@oooooooooooooooooooooo",
"ooooooooooooooooooooo@@@                @@@ooooooooooooooooooooo",
"oooooooooooooooooooo@@@                  @@@oooooooooooooooooooo",
"oooooooooooooooooooo@@                    @@oooooooooooooooooooo",
"ooooooooooooooooooo@@@       @@@@@        @@@ooooooooooooooooooo",
"ooooooooooooooooooo@@      @@@@@@@@@       @@ooooooooooooooooooo",
"ooooooooooooooooooo@@     @@@oooo@@@@      @@ooooooooooooooooooo",
"ooooooooooooooooooo@@     @@ooooooo@@@     @@ooooooooooooooooooo",
"ooooooooooooooooooo@@     @@oooooooo@@     @@ooooooooooooooooooo",
"ooooooooooooooooooo@@     @@@@@ooooo@@     @@ooooooooooooooooooo",
"ooooooooooooooooooo@@      @@@@@@@@o@@@@@@@@@ooooooooooooooooooo",
"ooooooooooooooooooo@@         @@@@@@@@@@@@@@oooooooooooooooooooo",
"ooooooooooooooooooo@@@            @@@@@@@ooooooooooooooooooooooo",
"oooooooooooooooooooo@@               @@@@@oooooooooooooooooooooo",
"oooooooooooooooooooo@@@                 @@@ooooooooooooooooooooo",
"ooooooooooooooooooooo@@@                 @@@oooooooooooooooooooo",
"oooooooooooooooooooooo@@@@                @@oooooooooooooooooooo",
"ooooooooooooooooooooooo@@@@@@@            @@@ooooooooooooooooooo",
"oooooooooooooooooooo@@@@@@@@@@@@@@         @@ooooooooooooooooooo",
"ooooooooooooooooooo@@@@@@@@@o@@@@@@@@      @@ooooooooooooooooooo",
"ooooooooooooooooooo@@     @@ooooo@@@@@     @@ooooooooooooooooooo",
"ooooooooooooooooooo@@     @@oooooooo@@     @@ooooooooooooooooooo",
"ooooooooooooooooooo@@     @@@ooooooo@@     @@ooooooooooooooooooo",
"ooooooooooooooooooo@@      @@@@ooo@@@@     @@ooooooooooooooooooo",
"ooooooooooooooooooo@@       @@@@@@@@@      @@ooooooooooooooooooo",
"ooooooooooooooooooo@@@        @@@@@       @@@ooooooooooooooooooo",
"oooooooooooooooooooo@@                    @@oooooooooooooooooooo",
"oooooooooooooooooooo@@@                  @@@oooooooooooooooooooo",
"ooooooooooooooooooooo@@@                @@@ooooooooooooooooooooo",
"oooooooooooooooooooooo@@@@            @@@@oooooooooooooooooooooo",
"ooooooooooooooooooooooo@@@@@        @@@@@ooooooooooooooooooooooo",
"ooooooooooooooooooooooooo@@@@@@@@@@@@@@ooooooooooooooooooooooooo",
"ooooooooooooooooooooooooooo@@@@@@@@@@ooooooooooooooooooooooooooo",
"oooooooooooooooooooooooooooooooooooooooooooooooooooooooooooooooo",
"oooooooooooooooooooooooooooooooooooooooooooooooooooooooooooooooo",
"oooooooooooooooooooooooooooooooooooooooooooooooooooooooooooooooo",
"oooooooooooooooooooooooooooooooooooooooooooooooooooooooooooooooo",
"oooooooooooooooooooooooooooooooooooooooooooooooooooooooooooooooo",
"oooooooooooooooooooooooooooooooooooooooooooooooooooooooooooooooo",
"oooooooooooooooooooooooooooooooooooooooooooooooooooooooooooooooo",
"oooooooooooooooooooooooooooooooooooooooooooooooooooooooooooooooo",
"oooooooooooooooooooooooooooooooooooooooooooooooooooooooooooooooo",
"oooooooooooooooooooooooooooooooooooooooooooooooooooooooooooooooo",
"oooooooooooooooooooooooooooooooooooooooooooooooooooooooooooooooo",
"oooooooooooooooooooooooooooooooooooooooooooooooooooooooooooooooo",
"oooooooooooooooooooooooooooooooooooooooooooooooooooooooooooooooo",
"oooooooooooooooooooooooooooooooooooooooooooooooooooooooooooooooo"
};
