/* XPM */
static char *_a33f51563ca486b815dbf0fde824aecuDl3jsRRm0ZHLCQN[] = {
/* columns rows colors chars-per-pixel */
"64 64 3 1 ",
"  c #D1765F",
". c #E6C576",
"o c white",
/* pixels */
"................................................................",
"................................................................",
"................................................................",
"................................................................",
"................................................................",
"................................................................",
"................................................................",
"................................................................",
"................................................................",
"................................................................",
"................................................................",
"................................................................",
"................................................................",
"................................................................",
"................................................................",
".........ooooooooo..........oooooooo..........ooooooooo.........",
"........ooooooooooo........oooooooooo........ooooooooooo........",
"........oo       oo.......ooo      ooo.......oo       oo........",
"........oo       oo.......oo        oo.......oo       oo........",
"........ooo      ooo......oo        oo......ooo      ooo........",
".........oo       oo.....ooo        ooo.....oo       oo.........",
".........oo       oo.....oo          oo.....oo       oo.........",
".........ooo      oo.....oo          oo.....oo      ooo.........",
"..........oo      ooo...ooo          ooo...ooo      oo..........",
"..........oo       oo...oo            oo...oo       oo..........",
"..........oo       oo...oo            oo...oo       oo..........",
"..........ooo      oo...oo            oo...oo      ooo..........",
"...........oo      ooo.ooo            ooo.ooo      oo...........",
"...........oo       oo.oo              oo.oo       oo...........",
"...........ooo      oo.oo              oo.oo      ooo...........",
"............oo      ooooo      oo      ooooo      oo............",
"............oo       ooo       oo       ooo       oo............",
"............ooo      ooo      oooo      ooo      ooo............",
".............oo      ooo      oooo      ooo      oo.............",
".............oo      ooo      oooo      ooo      oo.............",
".............ooo      o      oooooo      o      ooo.............",
"..............oo             oo..oo             oo..............",
"..............oo             oo..oo             oo..............",
"..............oo             oo..oo             oo..............",
"..............ooo           ooo..ooo           ooo..............",
"...............oo           oo....oo           oo...............",
"...............oo           oo....oo           oo...............",
"...............ooo         ooo....ooo         ooo...............",
"................oo         oo......oo         oo................",
"................oo         oo......oo         oo................",
"................ooo       ooo......ooo       ooo................",
".................oo       oo........oo       oo.................",
".................ooooooooooo........ooooooooooo.................",
"..................ooooooooo..........ooooooooo..................",
"................................................................",
"................................................................",
"................................................................",
"................................................................",
"................................................................",
"................................................................",
"................................................................",
"................................................................",
"................................................................",
"................................................................",
"................................................................",
"................................................................",
"................................................................",
"................................................................",
"................................................................"
};
