/* XPM */
static char *_cd971c465234e59f2983f59db971203Drk1iZR6jUzQtx0L[] = {
/* columns rows colors chars-per-pixel */
"64 64 256 2 ",
"   c #05060B",
".  c #070C15",
"X  c #0C1419",
"o  c #14151B",
"O  c #1A1C1C",
"+  c #181719",
"@  c #100F0D",
"#  c #251B18",
"$  c #17211D",
"%  c #25241C",
"&  c #33221B",
"*  c #0D1824",
"=  c #141B24",
"-  c #1C1D23",
";  c #1A1D2B",
":  c #151826",
">  c #191D31",
",  c #231E26",
"<  c #2E1E30",
"1  c #1C2224",
"2  c #14232D",
"3  c #1B232C",
"4  c #192827",
"5  c #1C2533",
"6  c #1C2A34",
"7  c #1D2C3A",
"8  c #162633",
"9  c #12272E",
"0  c #232325",
"q  c #23242A",
"w  c #252A2C",
"e  c #2A2B2D",
"r  c #2A2727",
"t  c #342A28",
"y  c #33322E",
"u  c #242A33",
"i  c #2B2D32",
"p  c #232D3A",
"a  c #272837",
"s  c #342D33",
"d  c #2D3235",
"f  c #25313C",
"g  c #2C333B",
"h  c #283636",
"j  c #333234",
"k  c #33353B",
"l  c #3C3C3C",
"z  c #383939",
"x  c #2B322B",
"c  c #452D33",
"v  c #47393A",
"b  c #563A3A",
"n  c #4C332D",
"m  c #673D36",
"M  c #6E3335",
"N  c #671E32",
"B  c #394F34",
"V  c #5A443B",
"C  c #494338",
"Z  c #694538",
"A  c #69533D",
"S  c #744C37",
"D  c #6C7738",
"F  c #283745",
"G  c #3B3D42",
"H  c #353B45",
"J  c #242A42",
"K  c #1E2B44",
"L  c #4A3943",
"P  c #563D43",
"I  c #6C3844",
"U  c #394349",
"Y  c #324454",
"T  c #474748",
"R  c #584745",
"E  c #494C55",
"W  c #4B5255",
"Q  c #565657",
"!  c #55514E",
"~  c #664A44",
"^  c #744847",
"/  c #6B5448",
"(  c #785848",
")  c #675857",
"_  c #765555",
"`  c #566754",
"'  c #796355",
"]  c #776B4F",
"[  c #565C62",
"{  c #5B6567",
"}  c #686867",
"|  c #75746C",
" . c #787876",
".. c #707070",
"X. c #6E5D62",
"o. c #8A353D",
"O. c #A23D3C",
"+. c #904E2C",
"@. c #8F683E",
"#. c #AA6335",
"$. c #983845",
"%. c #8C3B48",
"&. c #A63E43",
"*. c #B03D4A",
"=. c #994248",
"-. c #865A46",
";. c #8B4C53",
":. c #A64144",
">. c #A94246",
",. c #AC454A",
"<. c #AB494B",
"1. c #B2474B",
"2. c #B14A54",
"3. c #886949",
"4. c #956A48",
"5. c #847344",
"6. c #897449",
"7. c #95744B",
"8. c #866A55",
"9. c #887557",
"0. c #987856",
"q. c #946C58",
"w. c #A37958",
"e. c #AB6F4D",
"r. c #987C66",
"t. c #857976",
"y. c #8A7468",
"u. c #A57973",
"i. c #719058",
"p. c #968459",
"a. c #928657",
"s. c #A6845A",
"d. c #B8885D",
"f. c #A79253",
"g. c #9B8668",
"h. c #86827D",
"j. c #998675",
"k. c #959164",
"l. c #A58769",
"z. c #BC8B63",
"x. c #B88C69",
"c. c #BD926C",
"v. c #BC9467",
"b. c #A58877",
"n. c #B48A75",
"m. c #BD9273",
"M. c #B8967B",
"N. c #A79675",
"B. c #B1AA71",
"V. c #99AF65",
"C. c #C28D6A",
"Z. c #C3936B",
"A. c #C5976A",
"S. c #C39473",
"D. c #C59B73",
"F. c #CB9A74",
"G. c #C99879",
"H. c #D29B74",
"J. c #CC976E",
"K. c #D4A978",
"L. c #D1A979",
"P. c #E4AE7F",
"I. c #96C86F",
"U. c #B4C46F",
"Y. c #ACFD7C",
"T. c #AAF977",
"R. c #B4FE7C",
"E. c #B6FA7A",
"W. c #A8E976",
"Q. c #9BD865",
"!. c #C4C970",
"~. c #8B7D80",
"^. c #AA7983",
"/. c #7A8284",
"(. c #888786",
"). c #948C87",
"_. c #9A948B",
"`. c #9C9994",
"'. c #9B9795",
"]. c #938E92",
"[. c #A39C97",
"{. c #B19589",
"}. c #9FA694",
"|. c #A4A39D",
" X c #ABA69C",
".X c #B3AA91",
"XX c #ADADAC",
"oX c #A9A7A3",
"OX c #B5ACA9",
"+X c #ACB5A9",
"@X c #B4B2AD",
"#X c #B7B6A9",
"$X c #BCBBB4",
"%X c #B8B7B4",
"&X c #AEB2B3",
"*X c #A5A1A5",
"=X c #C59C84",
"-X c #D19D87",
";X c #C9A388",
":X c #D8AA86",
">X c #DDB788",
",X c #CDB196",
"<X c #E1B789",
"1X c #E2AC85",
"2X c #C8B9A9",
"3X c #C6BCB7",
"4X c #CEB6B5",
"5X c #ADCA8E",
"6X c #ABFE84",
"7X c #ACFE8B",
"8X c #A7FB87",
"9X c #B3FE84",
"0X c #B4FE8B",
"qX c #B9FA87",
"wX c #ADFC97",
"eX c #B3FD94",
"rX c #AFE989",
"tX c #BAC2AD",
"yX c #9EFF80",
"uX c #E4C289",
"iX c #CCC3AB",
"pX c #C4C3BC",
"aX c #CAC6B8",
"sX c #D3CCBC",
"dX c #D4C7B7",
"fX c #D6D4BC",
"gX c #D1CAB0",
"hX c #D1E3A0",
"jX c #CCBCC8",
"kX c #CDCBC4",
"lX c #CECDCA",
"zX c #C8C5C4",
"xX c #D4CCC1",
"cX c #D2CECA",
"vX c #D7CAC6",
"bX c #CCD3C7",
"nX c #D4D4CC",
"mX c #DBD4CC",
"MX c #DADACE",
"NX c #D7D5C5",
"BX c #D5D5D2",
"VX c #DAD6D2",
"CX c #DBDAD4",
"ZX c #DCDCD9",
"AX c #D5DAD4",
"SX c #D4C9D2",
"DX c #E2DBD7",
"FX c #E2D8CD",
"GX c #DDE1DA",
"HX c #DDE0CB",
"JX c #E2E1D6",
"KX c #E1E1DB",
"LX c #EAE8D7",
"PX c #E7EDCB",
"IX c #E6E5E4",
"UX c #BCCEC0",
/* pixels */
"L v c v V ~ ~ A A A @.6.7.0.j.b.j.j.l.-X-XC.;XS._ n m q.l.8.V V C & % & C C A R #.@.A.L.v.m.H.e.+.+.4.x.m.D.S.m.m.x.x.S.>XuXs.V ",
"v v z l v v v b b b A ( 8.9.0.g.j.l.l.=XG.C.H.S.S M ^ ~ n c y t % + @ + % t r & n #.Z.;Xv.A.=Xe.+.+.4.x.m.S.m.c.m.m.n.S.:X<Xp.Z ",
"L v v v L L R R R ~ / ( ] 6.9.a.j.j.l.G.G.C.H.C.-.n v z e d g r # @ X X 0 x % , 6 t 0.:Xx.c.L.e.+.S 4.m.A.c.A.c.m.m.S.=X:X>Xw.Z ",
"c L k z P R R / ' ' 8.8.9.| 9.0.g.j.g.;XH.d.H.S.~ s j h u p a i $ $ X   o i w L F > & x.x.m.H.e.+.+.e.A.D.A.Z.Z.m.S.S.G.:X<Xs.m ",
"P P P V ~ ~ Z / 3.8.3.6.6.9.9.0.g.j.g.{.S.d.:Xr.t s g q - ; q x - X .   O e 1 l U 3 X # x.H.K.#.+.+.e.v.A.A.Z.Z.m.c.S.D.<X<Xs.Z ",
"( _ ( ^ _ ^ Z ^ ( 3.4.6.] 5.6.6.g.g.g.M.C.Z.m.n w p 5 + , e q 4 + @ o . d y + q k + * . t H.H.e.+.+.#.v.A.A.Z.v.x.c.c.G.>XuXf.Z ",
"^ ( / ~ / ~ ~ ( -.-.6.6.D @.@.6.r.9.g.m.S.x./ : d a = O , : : o o o - + C z O - j o . o   ^ 1Xe.+.+.#.d.A.A.A.z.x.c.A.D.uXuXs.Z ",
"P P P b b m Z _ -.3.7.6.@.] 6.6.a.0.g.m.S.w.# H y - = 4 1 ; ; o o i U T | Q e 0 p r X   @ + {.#.+.+.e.A.v.A.A.v.x.c.A.F.<XP.s.Z ",
"L L L v v C / / ' 8.8.9.8.8.8.9.a.a.s.c.;XR = y q = ; ; a o 0 j ! i.*XXX%XoXh.R r e 4   .   n e.+.+.0.S.J.J.A.Z.C.C.H.G.1X<Xu.Z ",
"P b P v v b ! / _ ' ' 8.9.9.9.a.a.a.s.c.M.t q q , 0 w w 0 T ..'.$XkXSXSXcXpX$X X} z w + .   # @.#.+.w.M.K.J.A.Z.C.C.F.G.<X<Xw.Z ",
"P m b b v P R ( ' ' ' -.q.7.8.] 5.a.p.D.r.+ i q - q i a G (.OXnXkXcXBXZXVXcXxXpX`.{ w - . .   b +.+.0.=XH.F.v.A.C.C.Z.D.<X<Xd.S ",
"~ P P ~ ~ / ^ ( ( -.-.4.3.7.5.] @.7.w.D.V + q , u q i k  .@XzXkXBXZXZXDXZXCXcXpXpX`.T O : .   , +.+.e.G.=XS.v.d.x.z.v.D.<XuXs.S ",
"b ~ / ( ( -.-.@.;.4.4.4.7.7.@.] p.0.l.j.t # - 1 g a u ! oXtXSXlXnXAXZXZXZXZXVXkXzX$X .- 3 . . X +.+.e.{.{.F.v.d.x.d.z.Z.<XuXs.S ",
"v P ~ ~ / ^ ( -.-.-.4.4.7.7.D a.g.0.N.] % 0 O w g H i  .&XzXlXVXAXZXIXKXZXZXAXAXbXpX`.j q o   * b +.e.S.=XG.A.v.x.d.z.C.<X<Xs.S ",
"P b b m m ~ _ 8.8.q.8.q.9.9.6.9.g.g.l.C 3 - 0 H H g U ].zXlXlXZXZXZXKXZXZXZXSXlXtXOX|.Q g + @ . s +.e.=X=XG.J.C.x.z.C.C.:X<Xw.S ",
"~ ~ b R ) _ X.X.8.8.9.9.9.9.0.g.j.N.r.y ; o q Y H p [ `.zXzXSXSXKXIXIXIXZXSX*X ./.t. .[ g # +   p S e.=X;XH.J.C.C.z.C.S.1X<X0.Z ",
"R R _ _ ' 8.' y.9.8.q.6.6.9.r.j.g.j.) r 1 ; H H k g ) ..(.t...).XXcXkXBXzXoX/.'.@XOXXXt.T 1 +   j C e.H.=XG.A.x.x.d.x.c.>X>Xp.S ",
"~ ^ ( 8.8.q.6.8.6.9.9.6.5.6.g.j.b.j.C , = w G H G W { ).oX%X@X].'.XXBXlXXXoX&X~.Q Q ).'...j   ..Q b e.=X.XG.Z.x.x.d.z.m.>XuXw.Z ",
"( ( 3.4.7.7.6.5.5.6.6.5.6.p.g.l.N.y.r - : H H L G Q ~.[.~.{ E  .oXoXzXBX$X%X'.T r Q R ].(.r + R } t w.=X;XS.Z.v.d.d.v.A.uXuXs.Z ",
"3.3.6.3.5.5.5.] 5.5.5.6.p.p.g.g._./ O - q H H F G /.(.! Q } t ..|.&XzXKXzX$X@X*X .)._.OXoXT + R ! + q.-XG.A.v.z.z.z.A.D.>XuXw.Z ",
"9.9.9.| ] 6.] i.9.6.9.9.g.g.g.N.j.t r = G g H : E ~.*X(...~.].@XzX3X%XZX%XxXcX3X3X%XvXjX@XT # | T @ 8.=X{.F.A.z.C.J.F.H.>X>Xw.Z ",
"y.9.9.9.9.| a.y.a.p.a.k.g.j.b.{.) r q a G k q * Q '.4X2XOXOXpXSXDX3X3XDX3X3XDXcXBXmXdX3X XT t  .e X ( ;X=XG.A.S.J.J.G.G.>X:Xe.m ",
"k.k.k.a.a.r.9.k.g.g.l.j.b.b.b.b.v z q k d d o : [ ]. X4XvXvXvXDXDXOXXXmXaXoXxXDXDXFX4X3X Xv G } + * P ;X;XG.A.F.G.C.A.F.>X>X0.Z ",
"N.k.k.k.a.p.p.p.j.g.g.l.j.{.b.8.& T d g k 3 o = P ). X2XvXvXmXDXFXoX XMXaX XxXFXVXvXdX2X[.z Q l + = c =X;X;XG.F.D.Z.v.D.>XK.7.Z ",
"f.a.6.0.p.f.7.f.l.j.j.b.n.b.b.R C T g h a : , r G  .[.2X4XvXvXKXVX_.oXDXdX[.3XIXDXSX4X2X~.z | h = o y M.;X;XG.F.A.Z.C.S.<X>X7.m ",
"a.@.S ( ( @.7.l.l.{.u.{.n.n.b.t A T i d q : * } C [.[.OX4XvXmXDXDX[.} ].(.| 3XDXVXSXjXOX .L y.l - o r b.,X;X=XA.J.Z.C.G.<X:X7.Z ",
"p.5.A A ^ ( 8.r.^.u.u.b.u.S.' r | v e v ! k X ...XHX{.$X3XjXDXDXDXOXi.].oXXXcXDXbXVXtX|.} e R e , o 0 b.:X-X;XJ.J.J.C.J.P.K.4.Z ",
"l.6.( / / / 8.u.u.u.n.u.n.b.A C t.r | #X#X(.j ).gXN.h.oX3XzXVXBXZXkXjXjXlXBXBXZXbXzX$X`.{ - n e O 1 # r.,X;X=XJ.Z.C.J.S.K.K.@.m ",
"0.] S / / ( q.l.b.n.u.x.n.M.,X.X! R aXxX.X| 2XsX_.C } ].&XzX3XzXjX4XOX^.{.[.OX4XaX%X&X).L < o.< O 4 O y.>X;X;XG.A.v.v.D.<XK.7.Z ",
"l.3.( ( -.3.0.l.u.n.m.n.M.,X4XN.C iXNXiXN..XiX#X0 @ Q /.oX%X2X%X].y.%.%.;.;._ ~.$X%XoXt.u < N t O 3 - ' ,X;X=XG.A.v.v.A.<XK.@.Z ",
"w.7.4.3.3.3.4.e.w.w.n.n..XfXgX{.[.iXiX.XxXiX Xt   * h ..(.[.%X%X'.y.^.u.^.^.~.OXOXXX].! p h e H 1 q O / ,X;X;X=XD.B.v.L.P.K.@.Z ",
"7.4.3.@.-.-.-.-.@.4.0.M.2X4XgX<X4XiX,X2XSX#Xz X .   X Q ..[.[.XX%X].~.^.^.~.^.%XXX'...4 a a h i 0 5 O V ;X;X=XL.D.A.L.L.P.K.@.m ",
"@.@.3.D S A A q.@.s.p.,XiXdX4XgXgX2XiXvXzXT . X # R ].4XQ  .].XX&X*XoX&X%X%X%XpX+X .W o 1 u h h , q % z {.1X-X;XJ.F.H.J.P.K.4.m ",
"Q.I.I.V.V.V.i.S 0.G..X2XdXfXsXdXdXgXgXNX) + ! ).$XjX*XQ L Q  .[.@XjX$X%X%XzXlX%X(.} l . u i g d 3 u # s B.:X-XF.H.J.H.J.P.K.@.M ",
"Y.8X6XY.R.E.Q.D w.;X2X2XdXaXdXdXfXFXgX,Xj._.vXxX#X| r l } ! T  .[.%XzXjX$XzX@X'.) } l . w p k g 4 a % r k.U.!.U.U.!.B.!.!.!.a.D ",
"0X7X0X0X0XqXrXk.N..X2XiXsXdXfXfXNXdXdXiXfXFXdXt.y +   Q } ..} X.} t.[.[.oX`.t.} | | k   u H G h % u r 0 V.E.T.E.T.T.E.T.E.E.Q.Q.",
"qXqXqXR.R.R.E.N.,X2XiXdXmXsXsXsXvXsXiXiXaXOXQ + o : : [ /./.~.t.t.t.t.t. .t.t.(.(. .r . g g j d O w e O i.8X8X8X8X8X6X6XT.Y.Y.7X",
"0XqXqXqX0XE.W.l.OX4XsXxXmXNXmXvXsXdXsX2XoXG = 3 : : : W i.).'.].`.'.`.[.'.[._.`.j. .e X q F H H $ 1 x % ` 6X8X0X0X0X0X9XE.E.9X9X",
"7XeXqXeXeXqXrX_.3XdXvXmXMXVXVXBXxXsX$X`.L k p 4 u * X [ h.)._.`.[.|.oX X|.|.|.`._.h.k o 5 E T d , 4 x t z W.8X0X6XY.Y.Y.Y.Y.R.T.",
"7X0XqXeXwX9X0X XNXsXsXvXNXBXBXBXNX$X`.v o i d 0 q 1 O T ).[.[.|.|. XoX[.oX X X|._.(.W w 3 Y U d < 3 w y w I.8X8X7X9XY.6XY.Y.R.T.",
"wX7XeXeXqX0X5XxXxXnXNXNXbXCXxXnXpX|.! o O ; i u i : ; 3 ..oX`. X X+X|.XXoXoXOX X|.).x X 5 h T G r 6 h j h i.6X7X8X9X9X6X8X7X7X0X",
"0X0XqX0X9XqXtXvXNXMXnXBXCXlXkX$X).! O = w i i i e o = = 3 /.@XOXoXoXoX&X@XpX$X#X+X! X p . 1 U T j u d z h C eX8XwX7X8X8X8X8X8X8X",
"R.E.qX9XqXrX$XvXMXMXnXVXAXpX@X..d + - l e G z l 0 w T 3 1 q W Q ..(./.......} } ` . U `.l . i U j i d k j % I.wX8X7X7X7XeX7X8XY.",
"R.qXqX6X9X5XzXMXVXmXnXVXbXzX/., X o d T j E T v 3 4 } W U o k : 4 Q [ h i F a W * z }.iXoXa : k T k w h z j ` 7X7X0X0X8X9X9XT.R.",
"0XqXeX0XqX&XlXVXVXCXVXBXcXpXG   = - h T l l T C d . F i *X{ H H y T } U U [ J Y E zXPX_.H 8 * X F z g h k L B W.0X9XT.qXqX9XT.E.",
"eXeXwXqXrX%XBXnXVXDXBXnXZXoX. o o 4 k l l d T T 5 * : . F Q H U E U h 2 4 W i.(.AX#X} 8 > o 4 2 * 0 h p g k 3 ` 8X0XqXT.T.Y.Y.6X",
"0XwX7XqXtXzXBXNXAXCXnXcXAX}   3 o 4 z z l j l U g o 5 3 * f 6 6 7 Y F F F H /.(.` h : 6 2 2 2 * 2 X * 5 h 4 x z i.I.eXeX8X6X8X6X",
"0XwX9XW.+XlXVXVXDXnXVXBXkXT + = - 0 l z d r d U d 4 ; : 8 7 8 F 6 7 7 6 J 8 * 8 K K K $ X 8 8 > 2 * = J h 4 | 3X,X.XI.W.9X0X8X7X",
"0XE.qX}.zXlXnXGXCXnXnXAXXX- 1 0 1 r k z j i e k k 6 * 2 2 > 2 6 a u p 7 6 7 p q 9 f p : ; 8 9 9 7 7 7 7 9 f +XiXgXfXiX,X5XyX8XW.",
"qX9XU..XSXBXnXZXAXAXnXBX(.o 0 q w d g j i e 1 e h 6 q ; = > 3 : 2 9 2 5 u u 5 5 2 * 2 6 > > : , 9 8 7 K 7 H $XfXgXsXsXhXtX5XrXY.",
"qXrXN.+XBXDXAXDXBXAXnXlXW + e i u w d j s r , e h 1 0 : 8 8 2 5 2 2 ; ; ; : : * a ; 2 2 8 * 2 ; * 2 6 f f H pXfXNXfXfXbXxX#X5XT.",
"0X5X[.UXBXZXAXVXAXAXnX@Xi - j e r r e j d q 0 k T d f 2 p 5 > 8 3 2 2 3 5 5 > > X 3 * X 3 8 * 2 9 8 6 7 F F #XfXNXNXbXbXvXaX}.Q.",
"eX{.%XkXFXBXAXDXCXlXBX(.O q i i e q x j e r , z R T E 3 6 a a > > 5 8 8 * 2 8 a U H W W X 6 2 3 6 3 6 7 F p @XMXbXFXCXbXfXkX+XI.",
"U._.zXvXMXAXDXCXAXBXlX} + q e e x q q e s t , s N I ^ c s u 5 a a 5 6 F U W Q ) t.t.h.pX... 6 3 6 3 8 6 F 6 +XJXHXDXDXNXHXsXtX}.",
"}.+XnXVXCXAXDXVXAXAX$XG - q q e e 0 r r e e , t M o.$.$.m c 3 8 9 U ) X.%.%.$.O.o.o.o.S )...6 8 7 6 3 6 Y 7 +XJXHXGXAXMXAXbXtX}.",
" XtXkXVXZXAXGXVXnXAXoX- , q e e e q r e e r , s M %.:.1.*.%.c a P I %.$.O.&.&.O.>.*.&.$.M ) a = 7 p 7 7 Y h &XLXNXGXGXZXBXlXtX'.",
"tXaXnXMXCXCXCXCXNXBXh.+ q 4 s e e , w e q w < t M %.=.>.*.&.&.&.>.&.:.:.&.:.O.&.:.O.>.1.:.b u J 7 6 f f Y F XXLXGXGXJXMXMXaXtXoX",
"pXaXBXCXCXCXGXCXbXkX..+ q 0 i r i 0 h e i w t c o.=.:.,.,.,.>.&.O.>.&.&.>.&.&.>.<.>.<.>.>.;.G J 6 f f K Y F &XLXGXGXJXMXMXkXtXoX",
"zXbXMXCXGXCXVXVXbXpXW + q i i r i q w i d 0 c c o.$.:.,.>.>.>.>.>.>.&.:.:.>.>.>.>.>.>.>.2.;.s 5 6 f h F F F %XIXJXKXJXMXBXkXzXoX",
"kXNXMXCXCXMXVXBXlX%Xl , e d e u e q w i j r b n o.=.&.>.,.&.>.>.>.&.>.>.>.>.:.>.>.>.<.1.2.%.r 5 7 7 F Y F Y zXKXKXJXGXMXMXbXpXoX",
"bXnXBXMXCXCXMXnXlXoXe q e i i e d r w s g t I b +.=.&.,.,.,.,.>.>.>.>.>.>.:.>.:.>.>.<.>.2.;.j f F 7 F Y 7  .AXKXKXGXJXMXMXkXtXoX",
"nXNXBXCXCXCXMXnXkX'.e e e i q e d e i j h c %.I %.<.&.*.,.<.<.>.>.>.>.<.>.>.>.>.>.>.:.<.2.I u p F F F Y p &XGXKXKXKXJXMXMXkXtXoX",
"NXMXMXCXCXGXAXlXkX(.r e i i i e d r s j h b $.I =.=.:.<.2.<.<.<.1.,.<.>.,.,.,.,.2.1.<.2.;.J 9 6 7 F f F [ BXKXJXKXKXJXMXAXlXzX|.",
"nXBXMXMXCXCXnXlXzX..q e i i j i d s z z h P $.^ =.2.,.2.2.2.1.1.1.,.1.,.<.1.1.2.2.2.,.<.I < 8 7 F f F F (.AXCXGXKXGXGXCXMXlXtX`."
};
