/* XPM */
static char *f899a3814da1410da2adcff5c39c9d9eHT4hJH7T0PE4VAyN[] = {
/* columns rows colors chars-per-pixel */
"64 64 256 2 ",
"   c #030101",
".  c #0C0201",
"X  c #090809",
"o  c #130302",
"O  c #1A0401",
"+  c #1C0B03",
"@  c #140B0B",
"#  c #1B0C0B",
"$  c #140905",
"%  c #1D130C",
"&  c #1C1104",
"*  c #1B1413",
"=  c #110B13",
"-  c #220C03",
";  c #240C08",
":  c #241304",
">  c #2A1405",
",  c #23130C",
"<  c #2B140C",
"1  c #2C1C0C",
"2  c #271A08",
"3  c #341C0C",
"4  c #361A06",
"5  c #241313",
"6  c #2C1B14",
"7  c #281A15",
"8  c #321D12",
"9  c #331B17",
"0  c #34220C",
"q  c #3B240B",
"w  c #382608",
"e  c #2C2114",
"r  c #352313",
"t  c #3A2414",
"y  c #3C2B14",
"u  c #3C2A1A",
"i  c #36261A",
"p  c #30260F",
"a  c #392A24",
"s  c #3D3326",
"d  c #322B26",
"f  c #441702",
"g  c #452C0C",
"h  c #422C15",
"j  c #412D1B",
"k  c #472718",
"l  c #44321C",
"z  c #4C3B1C",
"x  c #483618",
"c  c #553B1C",
"v  c #4D3409",
"b  c #462E25",
"n  c #4B3524",
"m  c #4C3B23",
"M  c #4C3C2B",
"N  c #463727",
"B  c #523D23",
"V  c #563B29",
"C  c #493B34",
"Z  c #543D35",
"A  c #663C2A",
"S  c #613F19",
"D  c #56421B",
"F  c #4E411F",
"G  c #4E4226",
"H  c #544324",
"J  c #5A4424",
"K  c #54432B",
"L  c #5A452D",
"P  c #5C4A2B",
"I  c #594A28",
"U  c #4E4238",
"Y  c #5C4C33",
"T  c #564538",
"R  c #5D5338",
"E  c #624D2C",
"W  c #654A26",
"Q  c #6A552B",
"!  c #735C2C",
"~  c #624C33",
"^  c #664C38",
"/  c #645334",
"(  c #6A5535",
")  c #65543B",
"_  c #6A563A",
"`  c #6B5A3C",
"'  c #6C5935",
"]  c #725C3C",
"[  c #765A36",
"{  c #744B33",
"}  c #7B643B",
"|  c #76623B",
" . c #6D613D",
".. c #634D1E",
"X. c #534543",
"o. c #5C4D4C",
"O. c #574947",
"+. c #5C4F4D",
"@. c #674A45",
"#. c #6C5B42",
"$. c #6C5C4B",
"%. c #655547",
"&. c #735D42",
"*. c #775847",
"=. c #635353",
"-. c #695B57",
";. c #745D57",
":. c #754D47",
">. c #6C6143",
",. c #746244",
"<. c #7A6644",
"1. c #7C6A45",
"2. c #746349",
"3. c #7C6A4B",
"4. c #79664B",
"5. c #746354",
"6. c #796958",
"7. c #776956",
"8. c #776863",
"9. c #6F6160",
"0. c #8C593B",
"q. c #836C3D",
"w. c #8D723B",
"e. c #AF5639",
"r. c #B63E40",
"t. c #845A44",
"y. c #836B43",
"u. c #826D4C",
"i. c #876446",
"p. c #96684A",
"a. c #84714D",
"s. c #8B744B",
"d. c #8B7547",
"f. c #937B4C",
"g. c #947849",
"h. c #856954",
"j. c #976C57",
"k. c #857253",
"l. c #8A7453",
"z. c #8A7859",
"x. c #957B56",
"c. c #A67759",
"v. c #AB6D4F",
"b. c #876C65",
"n. c #887767",
"m. c #957966",
"M. c #927870",
"N. c #A77D68",
"B. c #AA796E",
"V. c #AF5049",
"C. c #C55559",
"Z. c #CF776F",
"A. c #CA6260",
"S. c #99824D",
"D. c #9D8454",
"F. c #998459",
"G. c #898C5F",
"H. c #B88747",
"J. c #A5895A",
"K. c #AC935C",
"L. c #B59059",
"P. c #9B8463",
"I. c #978569",
"U. c #968677",
"Y. c #8F846C",
"T. c #A28B62",
"R. c #A9886A",
"E. c #B68668",
"W. c #AA946A",
"Q. c #B49868",
"!. c #A88677",
"~. c #B78977",
"^. c #A99879",
"/. c #B9997A",
"(. c #BAA377",
"). c #BBA266",
"_. c #CA9559",
"`. c #CA9253",
"'. c #D4A354",
"]. c #C69569",
"[. c #D59B6B",
"{. c #C79778",
"}. c #D49B76",
"|. c #C6896D",
" X c #C4A977",
".X c #DBA677",
"XX c #CFAE73",
"oX c #E7AA7B",
"OX c #EBB678",
"+X c #E08A73",
"@X c #CAA45E",
"#X c #AA9A86",
"$X c #B89785",
"%X c #B39489",
"&X c #B7A68A",
"*X c #B8A794",
"=X c #BDB199",
"-X c #ADA38D",
";X c #9B8B87",
":X c #CA9E8B",
">X c #C59A86",
",X c #D69C89",
"<X c #C59C94",
"1X c #D58C89",
"2X c #E69796",
"3X c #C9A48B",
"4X c #D7A688",
"5X c #D8B786",
"6X c #CCA592",
"7X c #C8A995",
"8X c #D3A594",
"9X c #D3A995",
"0X c #D4AB9A",
"qX c #DBAD9B",
"wX c #D9A997",
"eX c #C8B59A",
"rX c #D4B39D",
"tX c #DBB39C",
"yX c #D9B797",
"uX c #CCB486",
"iX c #E5AC85",
"pX c #E6B388",
"aX c #E4B899",
"sX c #F3B590",
"dX c #D9ADA5",
"fX c #C9B9A4",
"gX c #DCB4A3",
"hX c #D8B9A5",
"jX c #D9BCB2",
"kX c #E3BBAB",
"lX c #E6B9A6",
"zX c #E4BDB2",
"xX c #EBB4A7",
"cX c #BFC086",
"vX c #D8C593",
"bX c #E7C695",
"nX c #EFC898",
"mX c #CEC2A8",
"MX c #D8C5A9",
"NX c #D9C9B4",
"BX c #DED2B7",
"VX c #E7C5AA",
"CX c #F3C8A8",
"ZX c #E9D8AA",
"AX c #E7C7B5",
"SX c #F3C7B5",
"DX c #E3D4BB",
"FX c #E9D7B7",
"GX c #F5DAAF",
"HX c #F7E7BA",
"JX c #EFE5B4",
"KX c #EBDAC4",
"LX c #F5D4C3",
"PX c #F6E8C4",
"IX c #F5EACD",
"UX c #D9CFC5",
/* pixels */
"F.F.D.Q.XX5XXX X).L.K.Q.(.(.(.^.G.6.Y x J [ J h 1 i r 3 x ~ W g x ,.#.) L #.m.>.[ [ q.d.d.y.q.[ k.>./ 1.l.s.c.R.2. .) ) ) #.2.2.",
"Q.Q.).(.XXbXbXvX X).(.W.F.3.` I y t w J <.| c w 1 1 : > 3 l B m y H K K K P ) E Q } d.d.d.g.x.x.,.,.k.z.T.T.l.i.#.#.) R R ) ) #.",
"S.K. XvXZXZXvX X^.F.>.K l y u y ) B c [ l.] k q i 3 0 i i r u N 0 w u n K K F E [ y.f.f.g.D.W.W.<.k.F.( J ` / ] ` #.#.` ) ) #.2.",
"Q.(.uXXX(.T.s.' x s l m I ) >.>.*.V k A [ W c E E V ^ ] _ m u i q > r l Y ) P 1.F.F.S.S.f.S.s.s.} a.W.<.E ` K R ) ) #.#.#.2.2.4.",
"/.R.l.&.~ H K K R R  . .>./ I F u 4 4 g c c W ] p.g.c.E.K.p.W 4 q > e i M #._ a.F.d.d.S.D.g.d.d.y.[ x.3.k.Y.) T R Y R ) #.2.>.5.",
"&.E m h l V #.6. ./ G H G I D D 3 h k v S W { i.E.{..X.X.X{.p.A k < 6 e s ) [ | q.q.d.S.S.d.d.d.u.Q ' E ) ,.Y %.) ~ Y R #.2.2.,.",
"H m z H P / ` } / I I K K H x w 1 r f c A 0.p.N. X4X5XpXpX4X].c.( u 6 i e m a.q.f.F.K.D.S.D.d.q.<.<.1.>.) R Y ` ) ) ) ` #.>.>.2.",
"G F I ' ' Q W W F F l m L K l 0 6 8 j E 0.0.p.~.6X9XaXpXpXyX4X:Xm.V 6 d 7 n P.F.} S.S.S.W.XX(.D.3.3.>.` ` ` 2.#.) _ ) #.) #.2.4.",
"E P E / I z F Y s I F F P G 3 8 < k V t.j.p.j.!. XyXaXyXlXhX9X8X~.t.b i 9 d C %.E q.S.K.T.T.F.d.u.1.3.1.' #.>./ R ) ` #.2.2.3.G.",
"x B ~ ] ] ] | | / R I P R x > < f c 0.j.J.j.c.~.3XtXtXtXbXlXyX0X6X%X;.a # 7 N C &.x.K.D.f.P.W.f.f.} | ,.,.&.2.#.#.$.#.` >.4.>.E ",
"c K P H J E / E ' I G I K t > 3 4 { p.L.|.v.c.3X4XaXtXtXVXAXVXVX<X*XM.X.5 * d C u.s.S.J.D.f.S.w.W.u.} 1.<./ ~ / Y #.) K G Y ` / ",
"z B H H P ' 1.s. ...F D h > > < f p.|..X4XE.p.~.,XqXlXlXVXVXhXhXdX<X%Xb.C # * a #.} w.g.D.d.} w.} Q [ u.1.,.4.2.m / ` ) / ` 2.3.",
"m z I ( [ ! } f.y.[ E B 3 : - - J x.E.E.R.t.:.b.:XtXxXgXdXdX$X%X!.!.M.b.X.5 @ 7 Y z.S.q.x. XXXK.f.f.F.f.,.` ` ) k.' P ) <.3.a.k.",
"Y G H I D z D Q | [ ( z 3 - - - 0.c.j.t.*.{ Z ;.~.0XlXgXdX8X$X%XN.!.B.h.Z a 5 @ 3 _ } ! g.J.S.S.D.D.F.x.i.k.m.z.^.z.3.3.3.,.,.3.",
"G x h F W Q ! q.} } W 3 > O O t e.c.E.{.}.~.h.@.N.<XgXkXjXdXdX<XgXlXtX$Xb.Z 9 . t ` s.D.Q.J.S.L.XXQ.F.d.i.1.4.2.s.P./.(.I.h.&.4.",
"w y z P q.x.g.q.D.d.c 4 - o O Z c.|.[..XpX4XB.t.m.>XgXkXzXdXdXdX9X6XwXgX%XA 9 ; : #.f.f.c.J.L.).(.g.! [ ] ] _ ~ 1.a.u.1.,.4.k.z.",
"I E x D } a.' / W D f < X . - 0.[.oX|.~.B.m.!.h.b.|.xXCXzXdX<XB.M.;XB.>XwXB.9 @ @ s T.K.`.cX(.).XXT.D.l.] _ 2.,.Y ,.4.2.,.` ` 4.",
"' I x ..d.d.Q W | v f 1 X   f B.[.|.v.v.{ t @.b.c.{.lXVXgX<XB.t.7 8.B.B.1X%XT . . p I.K.K.).K.S.D.).J.,._ 2.| / 4.k.3.,.,.] &.k.",
"P H z D D v D d. .w 3 <     L }.[.|.e.j.:.f @.B.N.}.nXCXkXqX%Xp.C M.>X~.:X0Xn.$ @ % 1.K.).).K.Q.Q.Q.x.s.R.z./ / P.F.3.,.,.<.] <.",
"y w g Q q.q.w.f.m h u .   . { }.[.[.|.|.B.M.!.<X{.oXnXCXVXAXqX>X<X<XwX4XaXAX!.3 X . I S.S.).Q. X/.J.y.s.F.u.( / a.a.3.<.l.z.l.z.",
"l h x Q q.S.q.! 3 n 9   o O A oXOXOXOXiXwX6X9X:X.XiXnXnXlXzXlXyXzXqXaXaXCXSX~.3 % . G W.K.(.S.W.T.F.P.f.' 1.P.k.f.z.a.1.a.s.3.a.",
"#.` ] ' ! } } E 3 M $   9 ; 0.OXOXOXOXsXsXwXpXaXoXpXnXCXCXVXSXlXxXxXCXxXxXSX3X:.C : P ^.W.(.d.F.y.[ f.P.| y.P.i.z.z.3.`  . .` | ",
"x h x J [ u.' w k M   . 9 k 0.oXOXOXsXsXsXsXaXsXoXOXsXCXCXAXSXCXCXSXSXCXxXSXkXB.@.; m u.P.W.S.T.T.3.F.uX/.J.P.l.` ` / _ <.3.3.z.",
"L K E E c / &.E k C . . 9 A v.`.OXsXsXsXCXGXaX4XpXoXOXaXxXzXVXlXxXCXxXCXzXzXxX2X:.- V ( W.F.F.T.x.x.x.d.} | ] _ &.,.&.4.z.n.k.k.",
"B P P J E  .! D u 6 %   ; :.v.+XOXoXsXsXxXCXaX}.iX|.{.1X|.8XxXxXxXLXkXLXLXxX8X,XC + V W.uX X(.y.a.3.1.' / / _ ) P ` #.) &.k.k.2.",
"B J H c Q } s.y.x 3 .   + V v.v.[.[.oXsXlXkXaX4X].c.E.>X>X6XdX0XCXlXzXLXkXxX2XB.5 ; ^ k.F.d.F.F.l.1.<.2.l.I.x.z.3.z.F.z.P.R.I.z.",
"P / ( I W ! ! ..D 3 . X . k c.v.[.oXoXsXaXdXqXiX.XE./.6XdXgXzXzXkXgXLXAXzXkXAXt.X 5 T 2.P.l.x.F.F.F.x.k.u.k.k.u.x.z.l.<.<.a.a.<.",
"D W Q Q ! ! ! Q W 0 @ * . ; p.].|.[.+XoXtXgXxXaXxXiX,X2X2XxXzXzXwXSXzXSXLXkXdXk = 5 C *.W.W.T.f.x.G.x.u.1.3.k.l.I.P.k.] ` <.3.4.",
"x D D D D ! q.q.! w ; = o o k c.E.}.}.}.wXqX,X{.Z.A.C.C.A.Z.1X1X>XkXkXkXzXjX;.O 5 % G ` s.S.W.S.P.a.' ' ,.3.2./ 2.1.<. .| 3.3.3.",
"D F J W ! } q.q.[ w - @ 5 o o k j.{.}.}.8X6XB.p.e.r.r.C.C.A.Z.Z.<X0XSXjXUXjX# o * & G ,.G.F.^.F.W.n.3.` >.>.` Y `  .` ) ` >.2.<.",
"F J E ' a.s.s.y.E 4 : > 7 + . . k B.{.{.4XqX{.|.Z.|.Z.Z.2X2XdXdXlXgXSXAXUXM.  * * % l Y k.a.3.,.3.7.7.>.%.>.2.7.7.3.2.#.>.>.3.7.",
"P B z z D I W D B q > h < 5 d   - p.{.|.{.wX,X}.[..X,X2X2XdXjXUXzXzXdXAXzXa   = * 7 6 1 L y i C G G N m G T T U G Y Y Y Y T I K ",
"q x B u 5 + & 1 g n > 9 9 a 7 O O < j.{.].{.{.,X{.4XqXdXzXjXAXVXzXkXjXKX-.  . @ % # 1 Y <.a.l.F.T.T.T.W.W.W.R.T.| k.f.3.<.u.a.} ",
"( H B M 9 o & x k K r 6 9 r 6 O + ; l p.E.{.{.,X.X,X,X8XdXzXAXVXSXkX=Xb.* . @ @ @ % 1 G 3.I.P.u.F.f.y.1.1.,.1.3.1.] E / | 1.1.' ",
"z P / M 7 o + 0 c ~ j 1 e 5 9 - * o O V c.R.}.{.4X,X6X8XdXzXAXzXlXgXM.%   . @ # o $ 1 m k.I.I.u.' ` ' / ) `  .>.] / / ,.4.3.k.k.",
"w F I y o o , y J E m : 6 , 8 < 5 ; o 4 [ p.v.B.{.}.2XwXdXzXlXdXwX<X%.      $ # @ . : G #.,.,.,. .5.k.z.z.6.3.>.) #.*.2.#.~ ~ ) ",
"y w x I n < > h W _ V 1 8 - t 8 * & + O V p.p.v.N.E.1X>X>X<X:X:X$X7Xa . =   = @ # o # s K K G Y I T T m m G )  .K Y ) Y ) %.~ K ",
"U F F I @.Z h 4 { ] L y r : r 3 7 $ + o b j.v.v.c.N.B.E.~./.>X<X3XhX6   X   # o + $ + 1 G %.R G >.7.k.4.%.I h 2 t G T m N K Y K ",
">.R s p n ~ ~ v W <.L k 0 3 3 4 1 & o o 9 *.N.E.~.~.~.~.~.$X:X6X0XeX=     = o o o o $ 2 s U U N t y 0 2 y P >.2.m.U.^.n.2.) ) #.",
"d d F ' _ B k v S [ c l 3 8 3 4 w r + O ; V E./.>X>X>X>X>X3X6X6XqX%X. X X * . ; @ . & e p & & e m Y ,.k.I.^.^.W.^.I.Y.I.n.2.) Y ",
"* e G 7.>.x 2 w g P F h y w t > r > , # # b j.{.:X:X3X3X:X3X6X9XqXM.$   X X X   % o & & K G.I.W.^.I.Y.$.U.U.8.n.n.Y.U.n.%.^ #.~ ",
"d e d G  .I D I 4 m c m h 4 j B r 9 7 o o b h.~.:X3X6X8X6X6X6X8XkXb.  X X     $ . % s T 5.7.%.>.F y m y =.n.n.U.U.Y.;XU.5.) ) &.",
"d * & & y x F z ~ B 4 h G t 3 < 3 r 7 o o < :.N.:X6XwX0XwX0XwX0XdX6.    =     * . X.+.C a a N u R R 8.b.U.U.M.n.8.7.8.n.8.T Y 2.",
"* * e p 1 w h m B z 0 h N t t i > > 5 # o - A m.$X:X8XwXqXtXqXqXkXY.2   . . @ $ 6 s u U %.%.8.8.z.6.n.8.5.-.$.%.5.9.7.n.M.$.Y &.",
"= @ % p y 0 y K l z > > h b M j > : + % + O n B.~.>X,X8XwXqXwXwXdX<X7.a 5 o o X 7.-X=X=X#X8.n.4.7.7.-.5.-.;.7.5.9.8.8.8.n.6.Y T ",
"X   . e y 0 t m x H w : 3 j b - t 3 + % , O b M.~.>X8X8XwXtXwX8X8X6X3Xn.@.< 5 d X %.#XmXBXmXNXDX8.6.O.-.=.-.=.$.=.9.9.9.8.8.%.K ",
"* X X e i y t u > 3.I.3.m 4 h j t u 1 % 7 + 3 :.B.>X:X6X8XqXqXwX,X3X0X$X!.:.Z Z R * i n.mXfX-XNXKXfX5.%.+.=.=.9.-.-.9.9.8.n.b.>.",
"  X % % 2 1 1 1  .rXPXMXm.l 4 - < j i 6 e - O k j.B.{.{.:XwXqX8X2X6X>X~.8X~.h.Z +.+.X.d -.mXmXfXBXfX$.+.-.-.+.-.-.+.9.9.-.7.8.$.",
"=   & p G >.G.cXJXvXvX5XZXK.w q r N y l Y + O < n >X~.,X>X{.wX6XwX6X6X6X:X$X!.N.T Y M.-.6 -.fXfXmXmXNXO.-.=.=.+.-.-.=.=.9.8.9.=.",
"  %.eXFXIXIXJXHXJXZXZXZXZXZXl.g y M K l m 1 5 5 3 h.0X,X4X6XxX$X0X9X8X6X6X>X$X~.%XT -.U.-.C %.NX*XKXNX*X+.+.=.+.=.=.=.=.9.9.9.9.",
"s vXnXbXJXHXGXGXHXJXZXZXZXHXVXu.m l Y l j b r + ; b %X8XwXwXgX<X0X9X8X6X7X6X$X$X$X*X7.=.#Xn.u $.NX=XKXmXO.C +.+.+.=.=.=.-.9.9.9.",
"mXHX5X'.OX_.[.5XJXJXZXZXvXbXHXyX4.p n m j M u O - ; @.<X<X0X:XgX0X9X6X6X7X6X3X$X%XNX-X7.5.#X#Xu U =XmXmX#XY.+.+.+.=.=.=.=.9.9.8.",
"JXbX`.'.'.H._.L.uXFXJXHXZXvXJXZX7Xm 0 m N Z u r ; ; < b.<X8X>XgX0X0X7X7X7X6X7X3X$X7XBX*X$.6.eXeX5.Y eXMXIX-XU +.o.o.+.=.=.-.9.9.",
"GX5X'.'.`.'.OX[./.ZXJXJXPXJXZXJXFX<.> t j N u n 5 9 5 b %X<XtX3XdX0XrXqX0XeX7X7X7X$XUXfX*X!.#.eXKX7.K eXBXBXR =.o.o.o.+.=.=.9.9.",
"5X@X'.'.'.XX[._.}.bXGXFXJXIXJXZXPX&Xy > 8 u r m 9 5 7 < b.7XgX:X0XrXgXgXrXrXrXrXrX!.MXNXfXmXI.2.Y.KXU C UXUX-Xs o.O.O.+.=.=.=.-.",
"OXH.H.'.XX4X]..X].{.JXPXIXJXZXZXJXNXY 1 3 u t u a . 5 < b <X3XyX0X0XgXgXhXrXrXrXeXrX$XfXfXeXFXMXF.z.NX=.8.UX-X+.o.O.X.+.+.+.=.=.",
"'.`.`.[.}..X4X X}.{.{.VXPXHXJXHXJXZXU.+ , r 6 i w i , < : n.MXVXmXeXeXrXtXlXgXtXhX&XrXAXKXDXMXBXKXm.Y.=Xi #X;XC O.O.X.o.O.o.+.+.",
"`.H.`.}.}.4X4X4X4X{./.7XMXMXZXJXHXPX&Xr < 9 6 i 0 8 6 5 , #.eXMXFXZXVXMXhXhXhXgXhXhX7XMXAXmXBXFXMXKX^.#XU.s -XX.X.X.X.X.X.o.o.+.",
"H.H.`.}..X4XyX4XbXaXgX7X3X&X).J.ZXJX=XN 5 5 7 i p 6 u 6 , N I.rXMXMXNXBXNXVXMXkXMXVX3XVXFXeXMXMXMXDXIX#X-X8.C $.X.X.X.C X.X.O.o.",
"w.v._..XiXaXaXlXeXhXMXjXhX6XE.p.(.AXeXZ + , & 6 e : a 8 i r 6.eXm.^.mXJXIXKXDXMXVXeX(.MXVXeXMXMXmXMXKXBX#X-XN M X.X.X.X.X.X.X.X.",
"e.H.'.XXiXpXaXbXyXMXjXjXzXgX:Xc./.GXNX$.% 5 + ; : + a i N b 2.fX-X=XfXmXjXBXKXKXVXeXuXeXMXVXMXZXeXFXeXBXMX^.U.r X.X.X.U X.X.X.X.",
"H.'..X.XpX5XyXaXAXAXVXjXVXgX{.c.W.FXKX8.7 7 % # , + 6 6 N b ^ fXBXBXNX=X=XfXNXBXFXFXKXFXFXPXDXFX(.BXmXeXDX&XI.V s C s C C X.C X.",
"H.[.OX[.pXpXaXyXyXfXhXAXAXhX/.c.j.VXKX8.* 7 % , , , , : r N U *XcXBXKXIXKXNX=X#XDXBXDXKXmX^.*XDX^.JXeXvXAX&X#X;.C C C C C C C X.",
"H..XOXXX5XpXaXyXVXVXNXAXMXeX$XR.s.AXIXU.% * # ; @ 5 - + 0 T T mXmXBXBXBXBXUXBXNXFX=XU.mXI.0 7.KXJX=XFX-XMXeX7X%XU U U C C C C C "
};
