/* XPM */
static char *c2046a29d6d648e597e4e29cd1abab36HrZ8g2TWk5HhphYx[] = {
/* columns rows colors chars-per-pixel */
"64 64 249 2 ",
"   c #03050B",
".  c #06090E",
"X  c #0A0A0E",
"o  c #000007",
"O  c #0C0D12",
"+  c #070C14",
"@  c #110F13",
"#  c #0D1116",
"$  c #0D121B",
"%  c #131215",
"&  c #1A1415",
"*  c #13151B",
"=  c #19161B",
"-  c #15191E",
";  c #1B1A1E",
":  c #170E0E",
">  c #241B1B",
",  c #291A19",
"<  c #331C1A",
"1  c #32221F",
"2  c #0F1623",
"3  c #121622",
"4  c #151B24",
"5  c #1B1C23",
"6  c #161D29",
"7  c #191E2A",
"8  c #13182C",
"9  c #211E23",
"0  c #291E21",
"q  c #341B21",
"w  c #1B212D",
"e  c #192028",
"r  c #1D2533",
"t  c #1F2835",
"y  c #1E2939",
"u  c #1C2637",
"i  c #232125",
"p  c #2C2424",
"a  c #24242A",
"s  c #2A292B",
"d  c #342424",
"f  c #3B2B2A",
"g  c #362928",
"h  c #212935",
"j  c #222C3C",
"k  c #272935",
"l  c #332E31",
"z  c #2B3C3B",
"x  c #293839",
"c  c #333C3D",
"v  c #3B3C3C",
"b  c #383536",
"n  c #33332E",
"m  c #471A19",
"M  c #50261D",
"N  c #452A27",
"B  c #46322D",
"V  c #433C3D",
"C  c #493532",
"Z  c #553B37",
"A  c #56312A",
"S  c #653226",
"D  c #63372F",
"F  c #622918",
"G  c #2B433D",
"H  c #33443C",
"J  c #334A3D",
"K  c #3A463C",
"L  c #4A483C",
"P  c #45543D",
"I  c #5B4239",
"U  c #73493D",
"Y  c #56663F",
"T  c #262E41",
"R  c #263143",
"E  c #2C3444",
"W  c #2A364A",
"Q  c #2C384C",
"!  c #373A45",
"~  c #2E3C55",
"^  c #1F2B41",
"/  c #433E42",
"(  c #2D4441",
")  c #2E4B46",
"_  c #324543",
"`  c #344B43",
"'  c #3B4C42",
"]  c #354B49",
"[  c #3A4848",
"{  c #355244",
"}  c #3C5345",
"|  c #3C544A",
" . c #3E5A4A",
".. c #395449",
"X. c #3B455A",
"o. c #3C5451",
"O. c #3F5854",
"+. c #394D67",
"@. c #444345",
"#. c #4A464B",
"$. c #4C494C",
"%. c #454848",
"&. c #554848",
"*. c #425444",
"=. c #425C46",
"-. c #435C4B",
";. c #4B5A4D",
":. c #495549",
">. c #565A4A",
",. c #484957",
"<. c #524E57",
"1. c #435B54",
"2. c #475856",
"3. c #565758",
"4. c #684944",
"5. c #77574C",
"6. c #775B54",
"7. c #6E544D",
"8. c #45644C",
"9. c #4A654D",
"0. c #4B6A4E",
"q. c #476648",
"w. c #556B4D",
"e. c #586849",
"r. c #59734B",
"t. c #456351",
"y. c #4A6552",
"u. c #4C6A53",
"i. c #4B6759",
"p. c #516C54",
"a. c #5B6C52",
"s. c #556857",
"d. c #4E7155",
"f. c #597555",
"g. c #5C7A54",
"h. c #54735B",
"j. c #587659",
"k. c #626D54",
"l. c #7B6259",
"z. c #667658",
"x. c #73785C",
"c. c #63764F",
"v. c #495666",
"b. c #5A5A68",
"n. c #50586F",
"m. c #625C68",
"M. c #635E73",
"N. c #4D6363",
"B. c #5B6E6C",
"V. c #556866",
"C. c #5C7C63",
"Z. c #597467",
"A. c #5C6676",
"S. c #5E7272",
"D. c #496573",
"F. c #65676A",
"G. c #647D68",
"H. c #686978",
"J. c #647575",
"K. c #647B74",
"L. c #6A7B78",
"P. c #75787C",
"I. c #756D6C",
"U. c #923338",
"Y. c #864E39",
"T. c #8D584D",
"R. c #A64E4D",
"E. c #866659",
"W. c #96685A",
"Q. c #916147",
"!. c #8A6D63",
"~. c #9A7668",
"^. c #997C73",
"/. c #8A7570",
"(. c #A57E74",
"). c #AB7669",
"_. c #A16D59",
"`. c #CB7479",
"'. c #68865A",
"]. c #728F5E",
"[. c #678369",
"{. c #6C8575",
"}. c #74867C",
"|. c #988377",
" X c #A68778",
".X c #B58B79",
"XX c #C99379",
"oX c #596C88",
"OX c #6A6D85",
"+X c #6A748B",
"@X c #797685",
"#X c #787C95",
"$X c #6A768B",
"%X c #897F80",
"&X c #D47A83",
"*X c #778684",
"=X c #798A8B",
"-X c #6981AD",
";X c #83879A",
":X c #8F9292",
">X c #A98C83",
",X c #AD9287",
"<X c #B79688",
"1X c #A79B97",
"2X c #B7978F",
"3X c #90A197",
"4X c #BDA191",
"5X c #8D92A6",
"6X c #B1ACAC",
"7X c #99ADA5",
"8X c #C49889",
"9X c #CB9491",
"0X c #C8A797",
"qX c #D4AB9B",
"wX c #D6B29E",
"eX c #CDA48D",
"rX c #C9ADA3",
"tX c #CAB3A8",
"yX c #D3B3A4",
"uX c #DBBCAD",
"iX c #D7B7A8",
"pX c #D9BDB3",
"aX c #D7AFA3",
"sX c #E4B9A7",
"dX c #E7BFB3",
"fX c #E4B695",
"gX c #DEC1B5",
"hX c #DCC4BB",
"jX c #DFC0AE",
"kX c #E2C3B4",
"lX c #E4C5B9",
"zX c #E5CABD",
"xX c #E9CABB",
"cX c #F5CFBA",
"vX c #D4C9C9",
"bX c #EBCEC2",
"nX c #E5CCC2",
"mX c #EDD2C5",
"MX c #ECD4CA",
"NX c #F5D7CA",
"BX c #EDDBD4",
"VX c #F3DBD3",
"CX c #F3DDD7",
"ZX c #F9E5DA",
"AX c #F7E2D3",
"SX c #F5E9E6",
"DX c #FDFAF8",
"FX c #F3EDEC",
"GX c #B2B5C4",
/* pixels */
"Z.C.C.C.C.Z.h.d.u.0.0.0.0.u.d.d.h.h.h.p.u.0.0.9.9.F.:X:XF.F.I.I.@X@X;X;XH.2.] ( ( ) ) ] ..1.2.2.2.3.V.V.V.B.J.J.L.L.L.J.S.V.y.;.",
"h.Z.Z.C.h.h.d.u.0.0.q.0.0.u.d.h.h.p.p.y.9.=.=.L V 3.P.5X5X3.$.F.P.OXH.#X;X#Xv.( G G ( ( _ ] [ o.2.2.N.V.B.S.J.P.*X*XP.P.L.G.s.9.",
"p.p.p.d.d.u.u.0.8.q.q.0.u.u.u.u.p.y.9.-.*.*.b g l V <.H.GX5Xv $.m.H.M.H.+X#X;XA.z z G G ( _ ] ] o.2.N.B.S.J.L.P.*X*X*X}.{.L.h.p.",
"y.y.y.u.u.0.u.q.q.q.q.q.u.u.u.u.y.;.:.*.*.f d p b $.m.H.;X6X3./ #.<.<.n.n.OX#X5XH.x x G ( ( _ ] | 2.N.B.J.L.L.}.*X*X*X}.{.G.h.f.",
"-.-.1.8.8.0.0.9.q.q.q.q.9.0.9.y.;.:.} %.n , > p s l #.3.P.vX:X@.<.F.M.H.OXOXH.+X5XH.z ( ( ` { { O.i.V.B.J.L.L.}.*X*X*X}.{.G.h.f.",
"} | -.-.8.u.0.0.q.8.q.q.8.8.=.-.:.*.:.b > > ; = 5 l @.<.@X6X:X/ #.m.H.M.H.+X;X#X+X=XN.J { { {  .1.N.V.B.J.J.J.L.{.}.}.}.{.C.f.j.",
"' ' *.-.8.9.u.0.0.8.q.8.-.=.*.*.*.' v > = % % = a b <.H.+X3X1X$.V #.b.b.M.M.H.#X;X$X$X1. . . .t.i.V.B.S.K.L.L.L.K.{.[.[.[.C.j.j.",
"H ' } -.-.8.8.8.8.q.8.=.=.*.*.*.' ' > @ % % ; l ! <.<.<.M.@X1X3.l s ! <.b.m.b.H.OX#X$XV.8.y.8.t.i.V.Z.K.K.K.[.G.G.G.[.[.[.C.j.j.",
"H H J } -.-.8.8.8.8.=.=.} } ' ' ' s X @ & ; b $.#.$.@.,.M.F.1XP.v p k @.m.P.H.OXOXOXH.b.s.u.u.u.i.V.Z.Z.G.G.G.G.G.G.G.G.C.j.d.d.",
"' J ` } | |  .-.-.=. . .} ' ` K H % @ % % s $.@.@.#.#.,.<.m.1X1X3.b b #.$.F.@X@XOXH.M.<.3.u.u.8.u.p.V.Z.Z.C.j.j.j.C.G.C.j.h.d.d.",
"=.} } } } } } *. . .} } } J H ' s X @ @ & l @.@./ $.<.#.&./.1X1XI.L f b / $.F.@X@XH.b.<.$.s.t.y.y.u.i.h.h.h.p.p.p.h.h.d.h.u.u.0.",
"p.8.=.*.} } } } } } } } ' ' H K ; @ % % & p b V v $.V Z ~.8XtX6X>X^.E.U C p $.F.@XH.F.,.#.s.u.t.t.8.t.u.u.u.9.8.9.0.u.u.u.8.8.8.",
"f.0.9.8.=.*.*.=.-.-.-.*.} ' ' v % % % % ; i s l b V Z ~.0XpXnXnXhXgXqX.XT.f 0 b.H.H.b.#.v ;.i.t.-.-.-.-.8.-.=. .=.8.8.8.8.-.-. .",
"g.f.r.p.p.p.0.u.0.9.0.0.=.*.;.v @ @ % % ; ; a p l C W.0XuXzXMXBXMXMXxXuX8X5.< / b.b.3.<.b %.y. .| { } } } } } } }  .-.-. . .} } ",
"g.g.g.f.f.f.f.f.f.f.g.f.p.w.s.b @ % % % ; ; 9 i d 7..XqXpXzXmXVXVXVXMXzXuX<XZ p <.$.$.$.V V -.| } { ` { { { | | } } } } } { ` J ",
"c.g.g.g.g.z.z.'.'.'.'.'.'.g.z.b @ % @ % = = 9 9 C ~.<XwXgXzXbXMXBXNXmXzXkXqXE., v / b b / b } { ` ` _ _ ] | O.1.1.1.| } { ` J H ",
"c.g.g.g.g.'.'.[.].].].].].'.'.n @ % % & = ; 5 i 4.(.8XwXgXlXzXmXmXmXbXlXuXwX XB p b s p b v :.} ` ] _ _ ] o.1.2.2.2.1.| { ` H H ",
"r.r.r.r.f.g.'.'.'.'.].].].].'.s O % % = = ; ; d E..XeXiXgXlXzXmXbXbXxXlXkXyX2X4.0 l p > s b :.} ` _ _ _ ] 1.2.N.N.N.2.O.] ` J J ",
"q.q.q.0.w.g.'.'.'.'.'.'.'.'.'.s X % = ; = ; = C  X4X0XyXpXlXnXbXbXbXxXlXkXiXrXE.p p p ; p l *.' ` _ _ ( ] 2.N.V.V.V.N.1.| ` ` J ",
"P P =.q.w.g.'.c.g.c.r.r.'.'.'.K O % = > ; 9 & Z  X4XrXiXiXuXgXlXzXlXkXkXlXhXpX Xg > p > > s %.} ` ` _ _ o.N.S.J.L.S.V.1.o.{ ` J ",
"P P =.q.w.g.c.c.r.r.r.L.v.B.=X4.% % > > > > = C 7.7.7.!.,X0XiXpXgXiXwXeX X^.!.7.p ; p 0 & $.F.} } ` ` ] 2.V.J.*X*XL.B.i.O.| { ` ",
"P *.=.9.w.r.c.r.r.Y L.$X' v.-X4., % > < > > & 5. X,X X!.l. X0XyXyX0X X6.l.|.<X Xf ; p d & V L.*.*.} } 1.N.B.L.*X*X}.S.N.1.o.{ ` ",
"*.=.9.w.w.r.r.e.e.e.J.B.r.K.D.I D & > 1 < , & Z Z &.l.|.>X^.>X0X0X<X X<X2X>X X~.N ; d g 0 p F.y.8.=.-.y.V.J.L.*X*XL.S.N.1.| ] ` ",
";.9.w.w.w.e.e.e.e.r.P.*Xz.+X+.&.D , , d d , & < #.- O &. X X<XuXuXeX<X(.s = b f > ; d f d d 3.G.q.9.8.y.Z.K.L.*XL.J.B.N.1.{ ` ` ",
"w.w.a.a.e.e.e.e.e.c.G.*XV.X.~ V A : , N f d > U ^.F.6.2X(.0X0XMXmXiX8X>Xm.s :X4.> > C B f C $.=X0.0.9.p.h.Z.K.L.J.B.N.1.] ` _ ( ",
"k.a.w.w.w.w.e.e.c.x.x.k.@.V 6X1X/.&.f < d d d _.T.(.8X8XaXuXuXVXMXkXiX8X8X2X.XW.f , Z < B C s H.K.q.0.u.p.h.Z.Z.V.i.o.] _ ( ( ( ",
"c.f.a.a.k.z.k.z.x.x.x.x.L tXZXZXZXZXmX,Xd , B qX0X<X8XiXlXpXgXBXVXzXzXqX.X.X8X<XC , 7.^.tXvXvXvX;Xy.0.u.u.u.i.t.1.o.] _ ( ( ( c ",
"k.a.a.z.z.z.z.x.x.x.x.>.>XZXBXmXxXeXXXNX>X: C sXxXbXbXMXzXpXhXCXVXzXxXNXzXlXmXiXN , wXAXcXNXAXDXvXB.=.9.8.t. .| { ) ( z z z c c ",
"a.a.a.z.z.x.x.x.z.z.e.x.MXBXZXxXQ.S F ).dX&.N sXkXbXNXMXlXyXgXCXVXlXxXVXVXNXNXqX< 3.pXdX_.Q.qXSXDX6X-.-.-.-.| { ` _ z x z z c ! ",
"e.e.a.z.z.G.z.z.k.e.>.tXBXAXAX~.m M F S T.A C wXdXxXMXmXyXrXhXZXCXdXkXNXVXNXNX9XZ 6X0X).F m _.AXFXFXS.} *.| } ` _ ! z z z z c v ",
"e.e.a.k.z.z.k.e.>.L :XCXBXSXmXf   & M S m : Z qXuXlXbXzXyXpXgXVXVXmXuXxXmXmXcXeXB 4.Y.Y.S M 5.NXFXDX6X] } | ] ] _ _ z z z c c v ",
"a.a.a.k.k.a.e.;.P |.hXgXAXZXNX&.  % a N < , Z qXuXlXlXzX2X~. X0X0X0XuXkXxXxXxXwXd   U Q.N < ).AXSXFXFX=X_ ] ] _ _ z z z c c v v ",
"s.s.s.a.e.>.>.*.>.rX2XiXVXZXpXl O O a f N N B 8XyXuXkXmX4X4.D T.5.W.zXzXzXkXsXiXB p W.I r % E.NXSXSXCXSXV.] ] _ z z z z c v v / ",
"s.3.3.3.>.>.:.P >.>X0XzXBXZXpXj O @ i b A D N  X0XyXpXnXhXrX,X XqXgXMXMXzXjXiXqXC g C h j % &.NXSXFXBXSX6X1.o.] _ ! ! [ [ @.@.@.",
";.;.;.;.;.:.*.P >. XtXnXBXCXhXE @ ; 9 n d A N E.2X0XyXpXpX0XqXaXsXmXNXnXkXiXqXeXZ C 9 j E 7 7.NXZXFXFXSX6Xb.N.2.[ [ [ @.%.@.@.@.",
":.;.;.;.:.*.P :.>.,XkXAXZXZXnXE o . ; L E.U M U <X,X,X~.T.U.U.R.R._..X0XqX0XeX).< a 5 j E j I.mXCXSXSXFX6XN.S.V.2.$.%.@.@.#.@.@.",
":.;.;.;.:.:.>.:.$./.1X6X6X6XtX0X/.4. XsXcX8XU B 5.~.|.>X).`.`.&X9X`.).(.~.).XXXXl.l % 3 E ! /.bXBXZXSXFX1XV.J.J.V.3.$.#.#.#.@.@.",
"=.;.;.3.;.:.x w 6 2 $ $ $ 3 k 3.rXNXcXcXwXW.Z f d I l.l.7.5.T.W.T.T.W.E.Q.XXfXcXAXxX4X>XrX2X<XzXCXZXSXFX7XJ.L.F.F.3.<.$.#.%.@.%.",
"y.y.y.y.-.5 $ * 3 4 5 6 6 5 4 $ 4 I.jX XB & & > p B 6.6.6.l.!.!.!.6.6.7.7.6.Q.).eXkXcXxXmXiX0XzXBXSXFXDX6XL.P.F.F.b.<.$.%.%.%.%.",
"p.u.y.y.x O - 4 5 5 6 w 7 w w w 5 3 V X o X & > d C ~. X X2X0X0X,X X Xl 2 9 = & g 5.<XtXnX%X/ b b ,.H.7X:XP.P.H.F.V.3.<.$.$.:.2.",
"y.t.-.8.x O - 4 7 w w 7 7 7 w w w w $   O X % > 0 d 4.<X^.^.>X(.~.<X X7.f = O O # $ f /.#.+ $ $ * $ # 2 w j ,.F.I.F.b.3.3.2.i.i.",
"-.-.|  .` @ 4 7 7 7 7 7 7 7 w r r r *   O X X , p p , I l.4.7.E.E.l.Z d O O # % = 5 w 5 $ 6 5 7 7 w w r r w 6 j 2.L.L.F.B.B.Z.Z.",
"{ } ' } ' * 4 6 e 6 7 6 6 7 w r r r * . O @ X & d p g 1 1 f g B f , % O % $ O $ * 5 h 4 5 6 w 7 w r j r r t r w 6 E P.}.L.K.[.G.",
"G H ` ` _ - 4 7 6 6 6 6 6 6 7 w r r 4 O X @ O & 1 d d B N f g , % O ; = * * O # * 4 r 7 6 6 7 w w w r r t j t r r 3 %.:X}.{.{.[.",
"G H z H _ 4 * 6 w 7 7 6 6 7 6 7 r r 7 O X % X > B N p f g > % X X O = ; 5 % % % * 3 r 7 4 e 7 w r u r j R j y t t 6 B.3X*X}.{.[.",
"z H z c _ 5 * 6 7 7 7 w 7 w 7 7 r r w O X O O O f I g 5 O . . O % # - ; ; % O % 4 * 6 4 6 6 6 w t j j j j j j h w %.7X:X*X{.{.[.",
"x H _ c _ 5 3 4 7 r r t j r r r r r t * X X O X O = % ; # # % * * * - * 5 = @ O ; * 4 4 4 w y j j y j t t r t r 6 *X7X=X}.{.[.[.",
"G H %.[ _ w w 7 w r r r j y j j j r r w X X % % % O O = # O O # # 4 = O 5 = % @ = 5 6 6 w r j R T R R y y t h w x 3X3X=X{.{.[.j.",
"J J K 2._ r 7 w w 7 7 7 w w r r j j j j 4 X @ % % $ O % O     . # 4 O . % ; % % * 7 7 r 4 $ 7 r j j R T j t h 5 v.5X;X*X{.[.C.h.",
"N.D.+.W 7 7 6 4 * $ O + O O # $ 3 6 r j j * % = = * % * * # # # 4 4 = % O = % = 4 4 w 6 $ 3 4 - w j j R R j r w A.oX$X+XL.G.C.j.",
"~ +.~ # $ O O .           . . . # $ 3 r j 5 % = 5 ; = * - * * * 4 = ; = O % = * 5 6 6 5 6 * * 4 * 4 w t j R j E n.n.A.v.oXoXB.s.",
"6 6 4 X   $ 7 6 3 % * * * 4 w j j T j y 7 ; = ; 9 i ; - - - * = 5 = = % % = ; = 4 4 6 7 4 * * * * * * 4 r R W ,.X.X.v.+.Q w y 2.",
"r 2 $ . 4 j R R T T R W W W W R j r 4 $ O = 5 ; ; 9 5 = * - * 4 4 - ; ; = ; 4 ; * 6 6 5 * % * * - - * * 4 r R v.X.~ X.j - 5 j v.",
"^ 6 3 5 7 4 7 w u r j R W R j r 3 # . O ; O = 9 5 5 i 5 * ; = 5 5 5 9 ; ; i 5 * 4 6 6 6 4 6 4 4 5 7 7 4 - 4 r Q v.X.W 4 h j Q +.",
"T u 6 O   X O # * * * 4 j r $ .   . + % 5 5 % ; ; 5 a i * - * i i 9 5 9 a 5 = - 4 4 7 4 r j r r w r h h w 6 5 r ,.,.x a j j W R ",
"6 u 8 #           . . . r 3   O * $ X O % ; % % 5 5 i a 5 * 4 a a 9 i a 5 = 5 w 7 6 6 4 h j j j j j j j h r w w Q n.,.x E ! T r ",
"$ 8 8 3 O . .       o O 6 h e 5 7 6 * O % = @ % = 9 9 a a * 4 a s a a ; = 4 w w 7 7 4 r h j r r w w 7 4 4 4 * 4 k <.v.X.~ ~ Q R ",
"O $ 6 $ O O O . . . # 4 - r R j w w 7 * % % = = 5 ; 9 s a ; 5 a s a ; * ; 4 6 7 6 6 w h w 6 3 * # O . . . O # % 9 b ,.Q j w r y ",
"O O 7 4 * * % * 4 5 4 * * 4 j W j r r w 5 9 5 O = 4 5 s a - 5 s a 5 4 ; = - 4 7 7 w w * # O . . . . O # * * w 7 = s ! j h w 7 3 ",
"O $ 7 6 6 6 5 7 7 3 $ $ * - w R W R j j h k s 4 * 5 5 a a - 5 a a 5 5 ; 4 * $ 5 7 7 7 * # # # $ - - 4 6 w w h R a l b k h h w 4 ",
"2 3 w w 7 w 7 4 * * * $ * - 5 w j R R T j k s a 5 5 5 9 9 ; 5 a 5 9 5 ; ; * $ 4 5 3 7 h h t r r r w w w r h j W k a k w 5 e - $ ",
"2 4 r w 7 6 3 - * * * * * - 6 7 w y T T j h l 9 4 5 9 9 ; * 4 5 5 a 4 5 5 $ $ 3 * $ * 5 r j j j j j R R R j j Q j 5 5 5 w 5 - * ",
"O + 4 5 4 4 * * * % * * - - 4 6 7 w r r r r k i 5 5 5 5 % - 0 q ; a 5 5 4 3 $ - # * - 4 6 w w h h j j j R Q W Q W ; - w w 6 6 6 ",
"+ . * 4 4 3 * $ % * * * - - 4 7 7 7 7 6 r j 7 a 9 9 5 5 % 4 m m 4 a a a 5 * # * 4 7 6 3 * 4 4 6 w w w w h j Q ~ ~ w a h y u y 7 "
};
