/* XPM */
static char *_ed114eb47bf4b858a919ba2657874318tZnpC0yL0d1vqRq[] = {
/* columns rows colors chars-per-pixel */
"64 64 256 2 ",
"   c #060201",
".  c #0C0301",
"X  c #0D0903",
"o  c #0E0709",
"O  c #130401",
"+  c #190601",
"@  c #150A03",
"#  c #1B0C03",
"$  c #150B0A",
"%  c #1B0D0A",
"&  c #120608",
"*  c #1C1103",
"=  c #1C110B",
"-  c #151104",
";  c #1F1313",
":  c #220C03",
">  c #210E09",
",  c #270C00",
"<  c #231204",
"1  c #2A1405",
"2  c #24130B",
"3  c #2A160B",
"4  c #2B1A0C",
"5  c #291A08",
"6  c #321B0D",
"7  c #35190A",
"8  c #2D1C12",
"9  c #261916",
"0  c #321E13",
"q  c #371C12",
"w  c #382308",
"e  c #2D221B",
"r  c #2D2015",
"t  c #342214",
"y  c #3A2415",
"u  c #33231A",
"i  c #3B251B",
"p  c #3D291D",
"a  c #392918",
"s  c #3C2B22",
"d  c #362923",
"f  c #3C3126",
"g  c #2D2321",
"h  c #432B1D",
"j  c #4A2C1C",
"k  c #442717",
"l  c #512B1C",
"z  c #4A331B",
"x  c #55351A",
"c  c #462D0C",
"v  c #442D22",
"b  c #4A2E21",
"n  c #443224",
"m  c #4C3324",
"M  c #4B352A",
"N  c #4A372A",
"B  c #533524",
"V  c #5B3A23",
"C  c #53362B",
"Z  c #543B2B",
"A  c #5B3C2C",
"S  c #563723",
"D  c #4A3D33",
"F  c #553E31",
"G  c #5C3E33",
"H  c #542D21",
"J  c #613E2C",
"K  c #6A362E",
"L  c #721D20",
"P  c #5D412E",
"I  c #55412E",
"U  c #544234",
"Y  c #5C4233",
"T  c #59483C",
"R  c #4C4035",
"E  c #64422C",
"W  c #674429",
"Q  c #624433",
"!  c #6C4A34",
"~  c #654B3C",
"^  c #6C4C3B",
"/  c #664735",
"(  c #734C39",
")  c #6B513A",
"_  c #77543C",
"`  c #6C562C",
"'  c #6F5222",
"]  c #594B42",
"[  c #564D45",
"{  c #684C41",
"}  c #6D5343",
"|  c #695549",
" . c #745343",
".. c #7B5A45",
"X. c #74564A",
"o. c #7B5C4B",
"O. c #775848",
"+. c #7B5D52",
"@. c #755C52",
"#. c #6B564B",
"$. c #7E644D",
"%. c #7A6658",
"&. c #7B7067",
"*. c #93383D",
"=. c #874A3E",
"-. c #806230",
";. c #835C44",
":. c #825D4B",
">. c #875A48",
",. c #885F54",
"<. c #97504C",
"1. c #AB5A59",
"2. c #84624E",
"3. c #89654B",
"4. c #846454",
"5. c #8B6A55",
"6. c #8C6C5B",
"7. c #866758",
"8. c #946D56",
"9. c #926D5B",
"0. c #986A5B",
"q. c #94725C",
"w. c #99745A",
"e. c #8D725B",
"r. c #A1765E",
"t. c #AA625B",
"y. c #876C63",
"u. c #9B6D61",
"i. c #8A7568",
"p. c #947463",
"a. c #9B7564",
"s. c #9C7964",
"d. c #95796A",
"f. c #9D7B6B",
"g. c #97766A",
"h. c #9A7D71",
"j. c #8D7E73",
"k. c #A47C64",
"l. c #A27D6B",
"z. c #A87868",
"x. c #B17A6B",
"c. c #A67E73",
"v. c #B3726A",
"b. c #C57371",
"n. c #9C826A",
"m. c #998576",
"M. c #8C887F",
"N. c #A4826C",
"B. c #AD846C",
"V. c #A9896A",
"C. c #A38374",
"Z. c #AB8573",
"A. c #AC8973",
"S. c #AC8B7B",
"D. c #A6867B",
"F. c #B38572",
"G. c #B28B75",
"H. c #B48D7B",
"J. c #BB8D7C",
"K. c #B88875",
"L. c #B5927C",
"P. c #BA937D",
"I. c #BB9879",
"U. c #B18F71",
"Y. c #A68F62",
"T. c #C3947E",
"R. c #C58A75",
"E. c #D1AC77",
"W. c #988B83",
"Q. c #B78E82",
"!. c #A99485",
"~. c #B49282",
"^. c #BC9482",
"/. c #BD9B84",
"(. c #BA998B",
"). c #A79A92",
"_. c #AF9489",
"`. c #B9A998",
"'. c #B0A392",
"]. c #BDB2A7",
"[. c #B7ACA4",
"{. c #C88C83",
"}. c #C29584",
"|. c #C39B85",
" X c #C39C8B",
".X c #CA9D8B",
"XX c #C99788",
"oX c #D19B8B",
"OX c #C79E91",
"+X c #D49C91",
"@X c #D68B88",
"#X c #C5A28B",
"$X c #CBA48D",
"%X c #CAA88D",
"&X c #D2A48C",
"*X c #C5A391",
"=X c #CCA492",
"-X c #CDAA93",
";X c #CDAB99",
":X c #C7A599",
">X c #D3A593",
",X c #D2AC95",
"<X c #D4AC9B",
"1X c #DAAC9B",
"2X c #DAA897",
"3X c #CBB29A",
"4X c #D5B29B",
"5X c #DAB49D",
"6X c #DAB89E",
"7X c #D4B296",
"8X c #D6B688",
"9X c #E3B295",
"0X c #C7B4A7",
"qX c #D5B4A1",
"wX c #DCB4A2",
"eX c #DBBAA4",
"rX c #DDBBA9",
"tX c #D5B9A5",
"yX c #D0B1A6",
"uX c #E2B4A5",
"iX c #E3BBA4",
"pX c #E3BBA9",
"aX c #E8B4A7",
"sX c #E19E98",
"dX c #DBC291",
"fX c #EDCC8F",
"gX c #D9C6B9",
"hX c #CDC5BC",
"jX c #E5CBBC",
"kX c #F0CEA8",
"lX c #FEE7AA",
"zX c #FFFBB7",
"xX c #D5CCC3",
"cX c #DDDACD",
"vX c #D7D4CB",
"bX c #DEDDD2",
"nX c #CECBC2",
"mX c #E3D8CA",
"MX c #E3DDD3",
"NX c #E4DFD8",
"BX c #F4D9CE",
"VX c #DFE3DA",
"CX c #E4E2D5",
"ZX c #EBE4D5",
"AX c #E4E4DB",
"SX c #EBE5DB",
"DX c #EBE9DD",
"FX c #E7E9DE",
"GX c #F5E8DB",
"HX c #E9E0CF",
"JX c #E4E9E2",
"KX c #ECEBE3",
"LX c #E6EAE4",
"PX c #F4ECE3",
"IX c #F5F1E7",
"UX c #FFF9F2",
/* pixels */
"y.%.+.@.+.y.g.g.@.,.,.q K c.c.D.!.!.pXGXBXyXy.T D [ #.[ f e 5 5 5 r r 5 5 3 8 3 0 i i u p v h h q k H B m z j z z m Z N a 0 8 0 ",
"y.y.y.@.@.@.,.%.y.y.g.y.h.g.a.l.n.C.BXGX<XW.#.] [ [ [ f d a r t r 5 5 5 8 5 8 u d q i p h i i v m B B m j j z N I U U N i 8 4 8 ",
"#.%.i.j.j.y.y.7.,.y.y.D.C.p.f.a.n.!.jX`.c.i.X.] [ [ D f a e t r 5 * 5 r 8 4 8 p 0 s v i h h h b C A G J A Y Q / ) ~ I n t t 8 8 ",
"+ 3 s M M s 8 3 g { ,.h.6.g.c.c.g.(.S.h.h.y.@.M f d f d e t r 5 * 5 r 5 8 0 i p q h v k k v M S G / _ ......o.o.o.} I z i y u t ",
": # O . . . . O . : { 7.6.f.f.p.C.m.d.n.,.y.{ T g 9 e e r r 5 < 5 t t 6 t h h y h v h b b m A _ ,.3.5.5.5.5.5.7.6.$.^ N p t t 8 ",
"* # @ @ # @ @ . # . U X.g.C.C.f.S.tXf.d.7. .+.{ 3 2 8 9 9 4 6 6 t 4 4 t i h h i b b h j S Q O.7.a.l.l.k.l.z.k.a.5.6.o.~ m 0 3 4 ",
"< - @ @ @ = - - + . M @.4.p.c.C.(.BX~.4.7.O. .F 0 0 u 8 r t t y t 7 6 a h h h b b m B S ^ 4.q.p.l.Z.H.H.J.J.J.H.a.u.7.O.U y 5 2 ",
"- # @ @ = = $ $ % . 2 %.X.g.l.f.qXGXD. ./  .G h t u s i r a a t y a m M m h j S A S S ( 5.a.s.l.Z.H.}.}.}.}..X|.H.l.9.4.~ n 4 2 ",
"@ @ @ - = ; = % 2 O + X.+.6.Q.h.mXjXo.S J _ A S v 0 u t t t a m I P Y Z k B A A B S  .u.l.l.Z.G.G.^.|. X.XoX.X.X}.H.g.4. .M 0 2 ",
"# - @ @ = = - = # > + h g.o.7.S.BXD.A 7 _ ;.E J b k 6 i y h ~ Q ..} P k h / G A S  .q.c.Z.Z.H.H.J.^..X.X$X>X>X$X=X^.l.6.$.~ h 1 ",
"- @ @ @ = = = * 2 > : y +.d.g.(.yXT 7 k 5...W / A v i i n ~ $.$.2.P z z Q / S J O.a.H.H.J.P.^.^.^. X.X=X>X2X1X,X2X.XH.f.y.+.C 7 ",
"@ @ . @ = = # * # > t i `.yXh.!.%.4 : _ 3.W x S A B M C | 6.$.7.Q j z Q S j A o.l.S.H.Q.^.^.^.}. XOX=X>X,X1X1X1X<X<XOXH.l.7./ q ",
"o X . . - - # < 5 * 5 ) gXGX_.} i + , 6.-.x x l S G G +.i.e.5._ z P ! j 7 l ^ p.H.~.~.^.}. X}. X X=X:X<X<X<X<X<XwX4X<X*X~.g. .b ",
"o X X . @ - # * 5 t a M.gXmXm.n 2 O h 4.>.W ! ! J G +.g.p.5...V V W V k E ( ( :.a.H. XOX X(. XOX*X=X<X<X<X<X<X5XtX<X<X=X(.Z.o.H ",
"o X   . @ @ - * r w $.'.gXm.R r # . p 2.:._ _ ..( o.c.g.4...W x E z x ! s.a.:. .:.u.Q.OX X XOXOX:X;X<XqXwXqXwXtXwXwX<X;XOXQ.,.H ",
"o o   X @ - * 5 a z '.[.n.%.f - # O 1 5.5.8.;.! _ C.h.7.o.W J ! x l o.p.s.D.S.6.O.:.a.~.OX XOX*X;X<X<XtXpXrXpXiXwXtXtX;X XQ.0.H ",
"X .     $ o 2 t c 3.lXn.&.T < # O 2 + } e.5.E V 3.Z.6...x V ! V H { +.,.g.D.(._.f.( >.u.Q.OX=X*X;XqXtXrXpXrXpXrXrXrX4X<X*X(.0.H ",
".     X $ ; 2 k ` dXdXm.| r 2 # @ @ . U d.) x ! w.a.! V J ( :.,. .G H C { y.D.(.Q.u. .>.k. X#X4XyXqXrXrXrXrXpXpXeXwX4X;X*X^.,.l ",
".   X X - 5 1 ` dXlXdX8XI * - = @ @ . q y.X.V _ 5. .J J ,.0.a.a.<.{ G { v > { c.OXOX0.>.>.G.#X;X<XqXrXrXrXrXrXpXrXqXwX<XOXQ.+.j ",
". . @ - 4 * c E.zXdXlXI.a 5 * @ . . . O N ) S  .:.J ( ,.k.z.K.x.v.,.,.y.G i > b c.OXJ.z.,.0.^.$X<X5XrXrXrXrXrXwXwXuX5X2XOXc.{ h ",
"X @ - * 5 * ..lXfXfXzXY.< 3 # O o   . . # y E o.( ^ ,.z.c.Q.}.K.v.u.,.#.q 8 { q X.Q.{.x.z.8.B.#X=X1XwXwXeXeXrXtXwXwX1X=X(.p.C s ",
". X * * * 5 Y.lXfXfXlX' w @ O o o . . O O 7 O. .J :.a.z.J.}.{.XXQ.z.u.g.C : q y.{ c.Q.J.J.k.P.|.oX>X1XqXtXeXeXwXwXuX>XOXQ.@.M p ",
"@ @ - - 5 c I.fXfXfXdXz # 2 @ O       . + b o./ :.u.z.x.Q.{.XX+XXX^.c.g.g.X.g.OXX.f.H.K.K.K..XT.oXoX&X7X4XqXwXwX1X1X.X}.f.~ F 0 ",
"- ; X # 5 x Y.lXE.lXU.w * @ % . X     O + ~ ^ _ 9.a.z.Q.{.XX+X+X.XOX Xc.D.Q._.g.X.c.S.Z.U.T.T.oX&X&X&X&X,X1X5X5XwX+X|.H.7.Z Z 3 ",
"$ X @ * 7 x E.E.E.kX8.1 # = @ o   o   X 5 ) Y q.8.k.F.J.}.XX+X2X>X=X:XOXQ.Q.D.Q.c.S.A.A.K.#XoXoX&XoX&X.XoX&X+X1X2X|.L.A.) Y m , ",
"- $ @ 2 w x E.9XE.fX` 1 # & . o   X X   a Y  .8.8.k.K.J.XX.X2X2XwX1X2X:XOXOX(.OXOX/.Z.A.T.>X&X>X&X$XXXT.K.F.F.J.|.|.L.2.Q P : h ",
"# @ O 1 c x E.fXE.fXx 1 @ $ & o X X   X z Y 5.q.w.B.J.T.XX+X+X1XuXuXwX<XyX1X:XOX^.G.x.T.7XaXuX<X#XI.G.F.z.0.<.4.9.N.N.) Q 7 1 S ",
"= # @ 5 c ' E.E.fXI.w < O $ $ o   X   * m } w.w.r.B.P.}..X+X2X1X1XuXpXwX;X:XOXQ.F.B.K.oXpXkXwX XH.P.Q.}.J.c.u.,._  ./ Q j , b { ",
"2 @ 2 5 w -.E.E.8X-.1 - # . O $ X o . 3 Z 4.s.w.r.B.P.}..X&X>X1X1XwXwXwX1XOX}.K.F.F.T.9XaXuXOX_.L.f.O.X.c.OXOXQ.y.^ k k 7 t M D.",
"< # 3 6 c Y.fX8XU.c 1 + - @ & $ .   O 8 T 5.s.w.k.B.J.}..XOX>X<X1X1XyX1XOX}.K.F.U.K.&X9XpX1X:XOX+.3 0 v M #.W._.Z. .H 7 7 i %.mX",
"< < 3 t V I.kX8X! 7 , O @ @ $ . X . O t ) 6.s.s.x.Z.J.^. XOXOX:X:X:X:XXXK.x.x.K.R.T.1XiXuX,XOXOX{ 3 8 ] W.#.M y.y.o.S 7 a I ].PX",
"5 5 4 z _ 8X8Xw.k 7 + % = O @ . . $ O p { 6.s.l.B.G.H.Q.}. X}.OXOXOXH.x.z.r.x.K.T.$XkX7X<X<X1XOXc.C i | 0X%.> C X.y.m 7 n i.HXDX",
"y # a ` 5.7XI.z 7 3 > $ $ @ X . . $ # n ~ $.q.N.K.Z.Q.^.H.H.(.^.^.B.r.Y.z.r.x.T.&X5XiX1X7X1X>XOXc.h.c.Q.D./ q G h.G 3 C D 0XPXCX",
"1 w / $.e.3X` y 3 > + + o @ @ @ . # = N T $.q.N.A.}.^.^.H.^.H.^.K.w.r.V.B.B.I.T.1XiXiX7X2X1X<X>X}.x.u.9.O.O.:.c.,.v v d i.GXZXDX",
"k ^ n.%.Y.$.y w 3 : + & $ $ @ @ . + 2 I P $.8.k.L.H..XF.G.H.x.}.P.N.8.w.N.K.T.8XaXpX5X2X5XuX5X<X=XXXS.S.a.6.!.Q.M C M F gXIXCXPX",
"@.!.0Xn.~ z w 5 > > $ $ % @ @ @ O # a U P _ 8.Y.F.I.H.XX>.u.XXQ.^.^.k.=.>.K.oX9XkXaX2X,XwXpXeXqX>X>XOXQ.g.c.(.F G { v W.PXZXDXDX",
"!.0X%.T N a t r > > % % ; % O # O , b Y ! ( 8.r.F.L.J.J.,.K v.{.XX^.J.z.>.r.T.9XaXiX1X&XyXrXuXuXpX>XOXH.c.`.6.{ i.m ] xXPXGXDXFX",
"rX&.U n n p r 2 ; > % ; 2 > # + : 4 S Q ( ! 3.r.U.P.P.^.<.>.L v.{.{.+XXXK.z.B.oX&X,X1X5XuXuXuXuX1XOX X~.c.p.o.W.X.h ).GXPXZXDXDX",
"| D v s u e g 9 9 ; ; ; 9 > < > 0 h A / _ =.=.w.A.L.^.^.u.<.<.L 1.{.sXoXoXoXT.I.I.,X5XwXuXuX1XuX<XOXOXf.7.i.'.i.p &.mXGXGXCXFXDX",
"n n d 8 d g 9 g g 9 9 9 8 3 1 1 p Z G ( _ =.( w.Z.^.H.^.c.<.<.<.L <.@XsXsX2X7X7X;XwX<X>X2XuXuX1X2X:Xf./ h.tX`.F U 0XDXPXGXFXCXFX",
"d g g s d 9 g g g 9 9 9 q 0 0 v I / ! ( ;.=.-.3.N.U.~./.XXv.<.1.1.*.*.b.@X9XuX&X7X,X$X7XwX1X1X1X<X:.Z d.gXgX| f W.mXIXNXGXSXDXAX",
"s d g 9 9 e g 9 9 9 9 0 s v S Q ) O._ $.8.3.=.>.s.V.~./.OX{.v.1.b.b.1.<.t.x.T.oXP.#X$X-X<XtXwXOXA z O.3XjXM.f &.hXPXPXSXKXSXCXcX",
"0 d g d d f g % % 2 u m C G ^ ^ O.$.$.8.N.w.3.3.e.n.~.#X>X1X+Xb.t.t.v.1.<.v.x.0.F.|.#X*X;X#X6.q j A m.jXm.I | ].GXPXSXSXDXAXbXcX",
"g 0 d v d 9 + % 2 i M F { {  . .$.e.3.n.B.r.n.w.q.p.S. X=X2XaXaXsX@Xb.@X+X1X+XF.J.^.*X(.4.y 7 z m / `.!.~ [ 0XvXKXSXSXGXDXVXbXbX",
"u g g q ; O > 0 s F Y Y X.o...4.e.w.q.V.I.V.U.U.G.N.Z.^.$X>X1XiXaXkXuX2X2X+XXXOX:X(.7.v , i p a q O.!.T ] ].cXMXDXDXGXDXCXcXbXCX",
"9 q g > % 0 s s C ~ }  .$.4.:.q.a.N.N.U.T.U.I.T. X^.A.H.(.$X,XeXuX1X5X4X;X;X(.C.{ 7 O # 0 8 2 t n @.@.T `.cXAXMXKXKXKXDXcXMXbXCX",
"q 9 9 3 8 d v v { } o.2.7.5.9.a.N.U.L.I.I.T.I.|..X|.^.H.H.^.#X-X5XqX;X~.d.| i + . O 3 8 3 > < i I T T `.ZXAXCXVXIXFXDXcXcXCXCXZX",
"9 > > g i q C X.$...4.q.5.9.n.A.^.|.%XI.T.#X#X#X$X$X=X$X/.P.~.L.c.O.j 1 # O . O O % 9 # O 2 y N U R m.DXMXDXcXFXKXDXCXcXcXZXCXFX",
"> + q i u C 7.7.+.y.d.w.s.C.L.L.I.$X%X#X#X-X-X-X7X-X-X-X-X#X(.C.G , O + O O @ & % > % # 4 y z m I &.'.CXKXLXvXIXLXJXMXmXCXNXSXJX",
": 3 q b Z O.6.o.9.l.N.N.V.S.L.I.#X%X;X-X;X3X4X3X7X7X-X-X-X*XA.$.h , O # # $ = @ % % > 3 0 p n I | %.).CXAXbXLXLXSXNXmXMXSXSXKXNX",
"< q i F { o.o.p.f.Z.S.S.L.I./.'.#X7X6X3X4XtX6XtX7X6X7X%X$X/.q.S 6 > + # @ @ $ @ % > 3 q i N B Y j.%.'.CXMXNXKXSXMXMXmXNXSXSXNXNX",
"1 y b G X.4.7.Z.Z.L.L.L./.#X#X%X-X7X4X4XtXqXtX6X3X6X7X*X(.N.} y 3 > # @ @ # # % > 3 6 w k Z S } m.i.'.ZXNXKXSXAXmXcXMXCXSXJXNXJX",
"7 j Y $.p.p.s.Z.A.H.P.P.#X#X#X#X7X4X6X6X6X6X6X6XeX7X7X*XL.4.S q > % O O * 2 2 4 6 q 7 k H H C %.m.y.!.SXGXMXZXcXcXHXCXCXSXAXAXVX",
"j Q 7.f.S.N.Z.Z.Z.H.L./.#X%X%X%X7X6X6XtXeXgX6XgXeX7X%X/.n.) y 3 2 # O # = 2 3 8 6 q k m C v C y.m.%.).SXSXxXcXxXmXCXZXZXAXCXAXVX",
"E p.N.V.L.L.(.G.G.H.J.^.#X$X$X-X4X6X6X6XdXrXtXqX3X#X/.m.$.B 4 , = # O # = 5 4 6 y y b M C v @.j.M.M.0XAXSXvXxXxXcXCXCXCXbXVXVXVX",
"5.A.f.L.#X#X#X|.}.^.P.}.|.#X#X%X7X6X6XqXrXrX4X3X%X/./.p.I y 5 : 2 % # # = 3 t i k h M m M [ W.M.i.[.hXCXAXmXcXMXcXcXbXbXbXVXVXbX",
"w.N.N.L.#X#X#X.X#X.X#X.X.X|.#X.X7X7X7X4XgX6X3X%X^.#Xn.^ P y : 3 # # # # 2 u p a h h i M D i.).&.M.vXhXDXCXcXFXVXFXCXbXvXvXvXAXbX",
"N.G.A.U.$X>X,X>X-X&X&X>X$X$X$X#X7X7XqXeX6X7X%X#X/.N.../ m 3 2 + # # # < t n n p i i v C [ ].M.&.nXvXvXbXbXCXCXFXFXFXLXVXbXvXvXxX",
"A.P.K.G.&X7X5X7X,X,X<X,X,X-X&X%X,X7X7X5X7X;X#X#XL.q._ Y w 3 2 + + + # 2 p N s a s 3 d d ).).[ nXKXnXcXbXCXFXVXKXKXJXFXbXNXNXMXMX",
"U.L.L.G.%X,X5X7X<X7X7X5X,X7X,X,X,X7X6X7X7X*X/.G.q.../ k q 0 O # + > # < s f i 0 9 q u i.).D [.IXnXxXbXCXCXCXIXKXFXVXJXVXPXMXmX[.",
"F.P.P.F.#X#X,X,X7X5X6X5X5X6X5X5X5X5X5X-X#X#XP.Z.3./ A j v 8 . # + # # > p s a u 3 : F @.T rXUXBXgXGXGXZXZXZXIXFXJXVXFXFXNXmXmXm.",
"L.I.^.U.#X/.%X7X,X5X6X6XeXiXiXiX9X7X7X%X/.L.l.>.W A J P v O + % + # < 2 e r 0 8 6 q 7 C mXBX0X'.0XgXjXmXGXIXPXKXJXVXFXVXNXBXGX`.",
"P.#X^.L.#X X-X7X,X7X6X6XiXiXgX9X6X7X,X#XB.8._ W >.:...Y 3 O % + > + 2 % 8 2 4 4 : v C o.7.{ 4.4.p.f.D.`.cXPXIXLXJXJXFXVXHXZXjXI.",
"L./.L.#X-X=X-X7X7XeXiX6X6XgXdX6X6X-X|.N._ ! :.w.8._ k , O # % % > + 2 # 9 2 0 8 b X.G b K X.2.6.p.6.y.D.3XgXFXJXLXJXFXFXHXZX`.n."
};
